<?xml version="1.0" encoding="utf-8" standalone="no"?>
<!DOCTYPE svg PUBLIC "-//W3C//DTD SVG 1.1//EN"
  "http://www.w3.org/Graphics/SVG/1.1/DTD/svg11.dtd">
<svg xmlns:xlink="http://www.w3.org/1999/xlink" width="330.755937pt" height="344.529688pt" viewBox="0 0 330.755937 344.529688" xmlns="http://www.w3.org/2000/svg" version="1.1">
 <metadata>
  <rdf:RDF xmlns:dc="http://purl.org/dc/elements/1.1/" xmlns:cc="http://creativecommons.org/ns#" xmlns:rdf="http://www.w3.org/1999/02/22-rdf-syntax-ns#">
   <cc:Work>
    <dc:type rdf:resource="http://purl.org/dc/dcmitype/StillImage"/>
    <dc:date>2025-02-09T20:55:44.019563</dc:date>
    <dc:format>image/svg+xml</dc:format>
    <dc:creator>
     <cc:Agent>
      <dc:title>Matplotlib v3.10.0, https://matplotlib.org/</dc:title>
     </cc:Agent>
    </dc:creator>
   </cc:Work>
  </rdf:RDF>
 </metadata>
 <defs>
  <style type="text/css">*{stroke-linejoin: round; stroke-linecap: butt}</style>
 </defs>
 <g id="figure_1">
  <g id="patch_1">
   <path d="M -0 344.529688 
L 330.755937 344.529688 
L 330.755937 0 
L -0 0 
z
" style="fill: #ffffff"/>
  </g>
  <g id="axes_1">
   <g id="patch_2">
    <path d="M 44.555937 305.037813 
L 323.555938 305.037813 
L 323.555938 27.837812 
L 44.555937 27.837812 
z
" style="fill: #ffffff"/>
   </g>
   <g id="Quiver_1">
    <path d="M 56.497945 292.516184 
L 67.664844 281.349285 
L 65.445413 280.609474 
L 75.062949 275.430801 
L 69.884276 285.048337 
L 69.144465 282.828906 
L 57.977566 293.995805 
L 56.497945 292.516184 
" clip-path="url(#pc6a3f52ccd)" style="fill: #0000ff"/>
    <path d="M 92.620153 292.647874 
L 99.87935 282.484998 
L 97.568492 282.120126 
L 106.203803 275.430801 
L 102.676704 285.768849 
L 101.582087 283.701239 
L 94.322891 293.864115 
L 92.620153 292.647874 
" clip-path="url(#pc6a3f52ccd)" style="fill: #0000ff"/>
    <path d="M 128.743633 292.843856 
L 132.673759 283.673562 
L 130.33831 283.810942 
L 137.344657 275.430801 
L 136.108243 286.28377 
L 134.59707 284.497838 
L 130.666944 293.668132 
L 128.743633 292.843856 
" clip-path="url(#pc6a3f52ccd)" style="fill: #0000ff"/>
    <path d="M 164.90332 293.108032 
L 166.118117 284.604451 
L 163.898686 285.344261 
L 168.485511 275.430801 
L 170.113094 286.232034 
L 168.189586 284.900375 
L 166.974789 293.403956 
L 164.90332 293.108032 
" clip-path="url(#pc6a3f52ccd)" style="fill: #0000ff"/>
    <path d="M 201.137086 293.403956 
L 199.922289 284.900375 
L 197.998781 286.232034 
L 199.626364 275.430801 
L 204.213189 285.344261 
L 201.993758 284.604451 
L 203.208555 293.108032 
L 201.137086 293.403956 
" clip-path="url(#pc6a3f52ccd)" style="fill: #0000ff"/>
    <path d="M 237.444931 293.668132 
L 233.514805 284.497838 
L 232.003632 286.28377 
L 230.767218 275.430801 
L 237.773565 283.810942 
L 235.438116 283.673562 
L 239.368242 292.843856 
L 237.444931 293.668132 
" clip-path="url(#pc6a3f52ccd)" style="fill: #0000ff"/>
    <path d="M 273.788984 293.864115 
L 266.529788 283.701239 
L 265.435171 285.768849 
L 261.908072 275.430801 
L 270.543383 282.120126 
L 268.232525 282.484998 
L 275.491722 292.647874 
L 273.788984 293.864115 
" clip-path="url(#pc6a3f52ccd)" style="fill: #0000ff"/>
    <path d="M 310.134309 293.995805 
L 298.96741 282.828906 
L 298.227599 285.048337 
L 293.048926 275.430801 
L 302.666462 280.609474 
L 300.447031 281.349285 
L 311.61393 292.516184 
L 310.134309 293.995805 
" clip-path="url(#pc6a3f52ccd)" style="fill: #0000ff"/>
    <path d="M 56.629635 256.170859 
L 66.792511 248.911663 
L 64.724901 247.817046 
L 75.062949 244.289947 
L 68.373624 252.925258 
L 68.008752 250.6144 
L 57.845876 257.873597 
L 56.629635 256.170859 
" clip-path="url(#pc6a3f52ccd)" style="fill: #0000ff"/>
    <path d="M 92.731711 256.282418 
L 98.805698 250.208431 
L 96.586267 249.46862 
L 106.203803 244.289947 
L 101.02513 253.907483 
L 100.285319 251.688052 
L 94.211332 257.762039 
L 92.731711 256.282418 
" clip-path="url(#pc6a3f52ccd)" style="fill: #0000ff"/>
    <path d="M 128.808136 256.483937 
L 131.602884 251.826024 
L 129.270289 251.646593 
L 137.344657 244.289947 
L 134.653201 254.87634 
L 133.397188 252.902606 
L 130.60244 257.560519 
L 128.808136 256.483937 
" clip-path="url(#pc6a3f52ccd)" style="fill: #0000ff"/>
    <path d="M 164.913122 256.817042 
L 165.612899 253.318153 
L 163.355848 253.933713 
L 168.485511 244.289947 
L 169.511443 255.164832 
L 167.664765 253.728526 
L 166.964987 257.227415 
L 164.913122 256.817042 
" clip-path="url(#pc6a3f52ccd)" style="fill: #0000ff"/>
    <path d="M 201.146888 257.227415 
L 200.44711 253.728526 
L 198.600432 255.164832 
L 199.626364 244.289947 
L 204.756027 253.933713 
L 202.498976 253.318153 
L 203.198753 256.817042 
L 201.146888 257.227415 
" clip-path="url(#pc6a3f52ccd)" style="fill: #0000ff"/>
    <path d="M 237.509435 257.560519 
L 234.714687 252.902606 
L 233.458674 254.87634 
L 230.767218 244.289947 
L 238.841586 251.646593 
L 236.508991 251.826024 
L 239.303739 256.483937 
L 237.509435 257.560519 
" clip-path="url(#pc6a3f52ccd)" style="fill: #0000ff"/>
    <path d="M 273.900543 257.762039 
L 267.826556 251.688052 
L 267.086745 253.907483 
L 261.908072 244.289947 
L 271.525608 249.46862 
L 269.306177 250.208431 
L 275.380164 256.282418 
L 273.900543 257.762039 
" clip-path="url(#pc6a3f52ccd)" style="fill: #0000ff"/>
    <path d="M 310.265999 257.873597 
L 300.103123 250.6144 
L 299.738251 252.925258 
L 293.048926 244.289947 
L 303.386974 247.817046 
L 301.319364 248.911663 
L 311.48224 256.170859 
L 310.265999 257.873597 
" clip-path="url(#pc6a3f52ccd)" style="fill: #0000ff"/>
    <path d="M 56.825618 219.826806 
L 65.995912 215.89668 
L 64.20998 214.385507 
L 75.062949 213.149093 
L 66.682808 220.15544 
L 66.820188 217.819991 
L 57.649894 221.750117 
L 56.825618 219.826806 
" clip-path="url(#pc6a3f52ccd)" style="fill: #0000ff"/>
    <path d="M 92.933231 219.89131 
L 97.591144 217.096562 
L 95.61741 215.840549 
L 106.203803 213.149093 
L 98.847157 221.223461 
L 98.667726 218.890866 
L 94.009813 221.685614 
L 92.933231 219.89131 
" clip-path="url(#pc6a3f52ccd)" style="fill: #0000ff"/>
    <path d="M 128.965478 220.048651 
L 129.946552 219.067577 
L 127.727121 218.327767 
L 137.344657 213.149093 
L 132.165983 222.766629 
L 131.426173 220.547198 
L 130.445099 221.528272 
L 128.965478 220.048651 
" clip-path="url(#pc6a3f52ccd)" style="fill: #0000ff"/>
    <path d="M 165.175118 220.533816 
L 165.429763 219.769879 
L 163.647244 220.024525 
L 168.485511 213.149093 
L 168.230865 221.552399 
L 166.957637 220.279171 
L 166.702991 221.043107 
L 165.175118 220.533816 
" clip-path="url(#pc6a3f52ccd)" style="fill: #0000ff"/>
    <path d="M 201.408884 221.043107 
L 201.154238 220.279171 
L 199.88101 221.552399 
L 199.626364 213.149093 
L 204.464631 220.024525 
L 202.682112 219.769879 
L 202.936757 220.533816 
L 201.408884 221.043107 
" clip-path="url(#pc6a3f52ccd)" style="fill: #0000ff"/>
    <path d="M 237.666776 221.528272 
L 236.685702 220.547198 
L 235.945892 222.766629 
L 230.767218 213.149093 
L 240.384754 218.327767 
L 238.165323 219.067577 
L 239.146397 220.048651 
L 237.666776 221.528272 
" clip-path="url(#pc6a3f52ccd)" style="fill: #0000ff"/>
    <path d="M 274.102062 221.685614 
L 269.444149 218.890866 
L 269.264718 221.223461 
L 261.908072 213.149093 
L 272.494465 215.840549 
L 270.520731 217.096562 
L 275.178644 219.89131 
L 274.102062 221.685614 
" clip-path="url(#pc6a3f52ccd)" style="fill: #0000ff"/>
    <path d="M 310.461981 221.750117 
L 301.291687 217.819991 
L 301.429067 220.15544 
L 293.048926 213.149093 
L 303.901895 214.385507 
L 302.115963 215.89668 
L 311.286257 219.826806 
L 310.461981 221.750117 
" clip-path="url(#pc6a3f52ccd)" style="fill: #0000ff"/>
    <path d="M 57.089794 183.518961 
L 65.593375 182.304164 
L 64.261716 180.380656 
L 75.062949 182.008239 
L 65.149489 186.595064 
L 65.889299 184.375633 
L 57.385718 185.59043 
L 57.089794 183.518961 
" clip-path="url(#pc6a3f52ccd)" style="fill: #0000ff"/>
    <path d="M 93.266335 183.528763 
L 96.765224 182.828985 
L 95.328918 180.982307 
L 106.203803 182.008239 
L 96.560037 187.137902 
L 97.175597 184.880851 
L 93.676708 185.580628 
L 93.266335 183.528763 
" clip-path="url(#pc6a3f52ccd)" style="fill: #0000ff"/>
    <path d="M 129.450643 183.790759 
L 130.214579 183.536113 
L 128.941351 182.262885 
L 137.344657 182.008239 
L 130.469225 186.846506 
L 130.723871 185.063987 
L 129.959934 185.318632 
L 129.450643 183.790759 
" clip-path="url(#pc6a3f52ccd)" style="fill: #0000ff"/>
    <path d="M 165.684409 184.30005 
L 165.939054 184.045404 
L 165.175118 183.790759 
L 168.485511 182.008239 
L 166.702991 185.318632 
L 166.448346 184.554696 
L 166.1937 184.809341 
L 165.684409 184.30005 
" clip-path="url(#pc6a3f52ccd)" style="fill: #0000ff"/>
    <path d="M 201.918175 184.809341 
L 201.663529 184.554696 
L 201.408884 185.318632 
L 199.626364 182.008239 
L 202.936757 183.790759 
L 202.172821 184.045404 
L 202.427466 184.30005 
L 201.918175 184.809341 
" clip-path="url(#pc6a3f52ccd)" style="fill: #0000ff"/>
    <path d="M 238.151941 185.318632 
L 237.388004 185.063987 
L 237.64265 186.846506 
L 230.767218 182.008239 
L 239.170524 182.262885 
L 237.897296 183.536113 
L 238.661232 183.790759 
L 238.151941 185.318632 
" clip-path="url(#pc6a3f52ccd)" style="fill: #0000ff"/>
    <path d="M 274.435167 185.580628 
L 270.936278 184.880851 
L 271.551838 187.137902 
L 261.908072 182.008239 
L 272.782957 180.982307 
L 271.346651 182.828985 
L 274.84554 183.528763 
L 274.435167 185.580628 
" clip-path="url(#pc6a3f52ccd)" style="fill: #0000ff"/>
    <path d="M 310.726157 185.59043 
L 302.222576 184.375633 
L 302.962386 186.595064 
L 293.048926 182.008239 
L 303.850159 180.380656 
L 302.5185 182.304164 
L 311.022081 183.518961 
L 310.726157 185.59043 
" clip-path="url(#pc6a3f52ccd)" style="fill: #0000ff"/>
    <path d="M 57.385718 147.285195 
L 65.889299 148.499992 
L 65.149489 146.280561 
L 75.062949 150.867386 
L 64.261716 152.494969 
L 65.593375 150.571461 
L 57.089794 149.356664 
L 57.385718 147.285195 
" clip-path="url(#pc6a3f52ccd)" style="fill: #0000ff"/>
    <path d="M 93.676708 147.294997 
L 97.175597 147.994774 
L 96.560037 145.737723 
L 106.203803 150.867386 
L 95.328918 151.893318 
L 96.765224 150.04664 
L 93.266335 149.346862 
L 93.676708 147.294997 
" clip-path="url(#pc6a3f52ccd)" style="fill: #0000ff"/>
    <path d="M 129.959934 147.556993 
L 130.723871 147.811638 
L 130.469225 146.029119 
L 137.344657 150.867386 
L 128.941351 150.61274 
L 130.214579 149.339512 
L 129.450643 149.084866 
L 129.959934 147.556993 
" clip-path="url(#pc6a3f52ccd)" style="fill: #0000ff"/>
    <path d="M 166.1937 148.066284 
L 166.448346 148.320929 
L 166.702991 147.556993 
L 168.485511 150.867386 
L 165.175118 149.084866 
L 165.939054 148.830221 
L 165.684409 148.575575 
L 166.1937 148.066284 
" clip-path="url(#pc6a3f52ccd)" style="fill: #0000ff"/>
    <path d="M 202.427466 148.575575 
L 202.172821 148.830221 
L 202.936757 149.084866 
L 199.626364 150.867386 
L 201.408884 147.556993 
L 201.663529 148.320929 
L 201.918175 148.066284 
L 202.427466 148.575575 
" clip-path="url(#pc6a3f52ccd)" style="fill: #0000ff"/>
    <path d="M 238.661232 149.084866 
L 237.897296 149.339512 
L 239.170524 150.61274 
L 230.767218 150.867386 
L 237.64265 146.029119 
L 237.388004 147.811638 
L 238.151941 147.556993 
L 238.661232 149.084866 
" clip-path="url(#pc6a3f52ccd)" style="fill: #0000ff"/>
    <path d="M 274.84554 149.346862 
L 271.346651 150.04664 
L 272.782957 151.893318 
L 261.908072 150.867386 
L 271.551838 145.737723 
L 270.936278 147.994774 
L 274.435167 147.294997 
L 274.84554 149.346862 
" clip-path="url(#pc6a3f52ccd)" style="fill: #0000ff"/>
    <path d="M 311.022081 149.356664 
L 302.5185 150.571461 
L 303.850159 152.494969 
L 293.048926 150.867386 
L 302.962386 146.280561 
L 302.222576 148.499992 
L 310.726157 147.285195 
L 311.022081 149.356664 
" clip-path="url(#pc6a3f52ccd)" style="fill: #0000ff"/>
    <path d="M 57.649894 111.125508 
L 66.820188 115.055634 
L 66.682808 112.720185 
L 75.062949 119.726532 
L 64.20998 118.490118 
L 65.995912 116.978945 
L 56.825618 113.048819 
L 57.649894 111.125508 
" clip-path="url(#pc6a3f52ccd)" style="fill: #0000ff"/>
    <path d="M 94.009813 111.190011 
L 98.667726 113.984759 
L 98.847157 111.652164 
L 106.203803 119.726532 
L 95.61741 117.035076 
L 97.591144 115.779063 
L 92.933231 112.984315 
L 94.009813 111.190011 
" clip-path="url(#pc6a3f52ccd)" style="fill: #0000ff"/>
    <path d="M 130.445099 111.347353 
L 131.426173 112.328427 
L 132.165983 110.108996 
L 137.344657 119.726532 
L 127.727121 114.547858 
L 129.946552 113.808048 
L 128.965478 112.826974 
L 130.445099 111.347353 
" clip-path="url(#pc6a3f52ccd)" style="fill: #0000ff"/>
    <path d="M 166.702991 111.832518 
L 166.957637 112.596454 
L 168.230865 111.323226 
L 168.485511 119.726532 
L 163.647244 112.8511 
L 165.429763 113.105746 
L 165.175118 112.341809 
L 166.702991 111.832518 
" clip-path="url(#pc6a3f52ccd)" style="fill: #0000ff"/>
    <path d="M 202.936757 112.341809 
L 202.682112 113.105746 
L 204.464631 112.8511 
L 199.626364 119.726532 
L 199.88101 111.323226 
L 201.154238 112.596454 
L 201.408884 111.832518 
L 202.936757 112.341809 
" clip-path="url(#pc6a3f52ccd)" style="fill: #0000ff"/>
    <path d="M 239.146397 112.826974 
L 238.165323 113.808048 
L 240.384754 114.547858 
L 230.767218 119.726532 
L 235.945892 110.108996 
L 236.685702 112.328427 
L 237.666776 111.347353 
L 239.146397 112.826974 
" clip-path="url(#pc6a3f52ccd)" style="fill: #0000ff"/>
    <path d="M 275.178644 112.984315 
L 270.520731 115.779063 
L 272.494465 117.035076 
L 261.908072 119.726532 
L 269.264718 111.652164 
L 269.444149 113.984759 
L 274.102062 111.190011 
L 275.178644 112.984315 
" clip-path="url(#pc6a3f52ccd)" style="fill: #0000ff"/>
    <path d="M 311.286257 113.048819 
L 302.115963 116.978945 
L 303.901895 118.490118 
L 293.048926 119.726532 
L 301.429067 112.720185 
L 301.291687 115.055634 
L 310.461981 111.125508 
L 311.286257 113.048819 
" clip-path="url(#pc6a3f52ccd)" style="fill: #0000ff"/>
    <path d="M 57.845876 75.002028 
L 68.008752 82.261225 
L 68.373624 79.950367 
L 75.062949 88.585678 
L 64.724901 85.058579 
L 66.792511 83.963962 
L 56.629635 76.704766 
L 57.845876 75.002028 
" clip-path="url(#pc6a3f52ccd)" style="fill: #0000ff"/>
    <path d="M 94.211332 75.113586 
L 100.285319 81.187573 
L 101.02513 78.968142 
L 106.203803 88.585678 
L 96.586267 83.407005 
L 98.805698 82.667194 
L 92.731711 76.593207 
L 94.211332 75.113586 
" clip-path="url(#pc6a3f52ccd)" style="fill: #0000ff"/>
    <path d="M 130.60244 75.315106 
L 133.397188 79.973019 
L 134.653201 77.999285 
L 137.344657 88.585678 
L 129.270289 81.229032 
L 131.602884 81.049601 
L 128.808136 76.391688 
L 130.60244 75.315106 
" clip-path="url(#pc6a3f52ccd)" style="fill: #0000ff"/>
    <path d="M 166.964987 75.64821 
L 167.664765 79.147099 
L 169.511443 77.710793 
L 168.485511 88.585678 
L 163.355848 78.941912 
L 165.612899 79.557472 
L 164.913122 76.058583 
L 166.964987 75.64821 
" clip-path="url(#pc6a3f52ccd)" style="fill: #0000ff"/>
    <path d="M 203.198753 76.058583 
L 202.498976 79.557472 
L 204.756027 78.941912 
L 199.626364 88.585678 
L 198.600432 77.710793 
L 200.44711 79.147099 
L 201.146888 75.64821 
L 203.198753 76.058583 
" clip-path="url(#pc6a3f52ccd)" style="fill: #0000ff"/>
    <path d="M 239.303739 76.391688 
L 236.508991 81.049601 
L 238.841586 81.229032 
L 230.767218 88.585678 
L 233.458674 77.999285 
L 234.714687 79.973019 
L 237.509435 75.315106 
L 239.303739 76.391688 
" clip-path="url(#pc6a3f52ccd)" style="fill: #0000ff"/>
    <path d="M 275.380164 76.593207 
L 269.306177 82.667194 
L 271.525608 83.407005 
L 261.908072 88.585678 
L 267.086745 78.968142 
L 267.826556 81.187573 
L 273.900543 75.113586 
L 275.380164 76.593207 
" clip-path="url(#pc6a3f52ccd)" style="fill: #0000ff"/>
    <path d="M 311.48224 76.704766 
L 301.319364 83.963962 
L 303.386974 85.058579 
L 293.048926 88.585678 
L 299.738251 79.950367 
L 300.103123 82.261225 
L 310.265999 75.002028 
L 311.48224 76.704766 
" clip-path="url(#pc6a3f52ccd)" style="fill: #0000ff"/>
    <path d="M 57.977566 38.87982 
L 69.144465 50.046719 
L 69.884276 47.827288 
L 75.062949 57.444824 
L 65.445413 52.266151 
L 67.664844 51.52634 
L 56.497945 40.359441 
L 57.977566 38.87982 
" clip-path="url(#pc6a3f52ccd)" style="fill: #0000ff"/>
    <path d="M 94.322891 39.01151 
L 101.582087 49.174386 
L 102.676704 47.106776 
L 106.203803 57.444824 
L 97.568492 50.755499 
L 99.87935 50.390627 
L 92.620153 40.227751 
L 94.322891 39.01151 
" clip-path="url(#pc6a3f52ccd)" style="fill: #0000ff"/>
    <path d="M 130.666944 39.207493 
L 134.59707 48.377787 
L 136.108243 46.591855 
L 137.344657 57.444824 
L 130.33831 49.064683 
L 132.673759 49.202063 
L 128.743633 40.031769 
L 130.666944 39.207493 
" clip-path="url(#pc6a3f52ccd)" style="fill: #0000ff"/>
    <path d="M 166.974789 39.471669 
L 168.189586 47.97525 
L 170.113094 46.643591 
L 168.485511 57.444824 
L 163.898686 47.531364 
L 166.118117 48.271174 
L 164.90332 39.767593 
L 166.974789 39.471669 
" clip-path="url(#pc6a3f52ccd)" style="fill: #0000ff"/>
    <path d="M 203.208555 39.767593 
L 201.993758 48.271174 
L 204.213189 47.531364 
L 199.626364 57.444824 
L 197.998781 46.643591 
L 199.922289 47.97525 
L 201.137086 39.471669 
L 203.208555 39.767593 
" clip-path="url(#pc6a3f52ccd)" style="fill: #0000ff"/>
    <path d="M 239.368242 40.031769 
L 235.438116 49.202063 
L 237.773565 49.064683 
L 230.767218 57.444824 
L 232.003632 46.591855 
L 233.514805 48.377787 
L 237.444931 39.207493 
L 239.368242 40.031769 
" clip-path="url(#pc6a3f52ccd)" style="fill: #0000ff"/>
    <path d="M 275.491722 40.227751 
L 268.232525 50.390627 
L 270.543383 50.755499 
L 261.908072 57.444824 
L 265.435171 47.106776 
L 266.529788 49.174386 
L 273.788984 39.01151 
L 275.491722 40.227751 
" clip-path="url(#pc6a3f52ccd)" style="fill: #0000ff"/>
    <path d="M 311.61393 40.359441 
L 300.447031 51.52634 
L 302.666462 52.266151 
L 293.048926 57.444824 
L 298.227599 47.827288 
L 298.96741 50.046719 
L 310.134309 38.87982 
L 311.61393 40.359441 
" clip-path="url(#pc6a3f52ccd)" style="fill: #0000ff"/>
   </g>
   <g id="matplotlib.axis_1">
    <g id="xtick_1">
     <g id="line2d_1">
      <path d="M 57.237756 305.037813 
L 57.237756 27.837812 
" clip-path="url(#pc6a3f52ccd)" style="fill: none; stroke-dasharray: 2.96,1.28; stroke-dashoffset: 0; stroke: #b0b0b0; stroke-opacity: 0.5; stroke-width: 0.8"/>
     </g>
     <g id="line2d_2">
      <defs>
       <path id="mf972f7bbde" d="M 0 0 
L 0 3.5 
" style="stroke: #000000; stroke-width: 0.8"/>
      </defs>
      <g>
       <use xlink:href="#mf972f7bbde" x="57.237756" y="305.037813" style="stroke: #000000; stroke-width: 0.8"/>
      </g>
     </g>
     <g id="text_1">
      <!-- −1 -->
      <g transform="translate(49.866662 319.63625) scale(0.1 -0.1)">
       <defs>
        <path id="DejaVuSans-2212" d="M 678 2272 
L 4684 2272 
L 4684 1741 
L 678 1741 
L 678 2272 
z
" transform="scale(0.015625)"/>
        <path id="DejaVuSans-31" d="M 794 531 
L 1825 531 
L 1825 4091 
L 703 3866 
L 703 4441 
L 1819 4666 
L 2450 4666 
L 2450 531 
L 3481 531 
L 3481 0 
L 794 0 
L 794 531 
z
" transform="scale(0.015625)"/>
       </defs>
       <use xlink:href="#DejaVuSans-2212"/>
       <use xlink:href="#DejaVuSans-31" transform="translate(83.789062 0)"/>
      </g>
     </g>
    </g>
    <g id="xtick_2">
     <g id="line2d_3">
      <path d="M 184.055937 305.037813 
L 184.055937 27.837812 
" clip-path="url(#pc6a3f52ccd)" style="fill: none; stroke-dasharray: 2.96,1.28; stroke-dashoffset: 0; stroke: #b0b0b0; stroke-opacity: 0.5; stroke-width: 0.8"/>
     </g>
     <g id="line2d_4">
      <g>
       <use xlink:href="#mf972f7bbde" x="184.055937" y="305.037813" style="stroke: #000000; stroke-width: 0.8"/>
      </g>
     </g>
     <g id="text_2">
      <!-- 0 -->
      <g transform="translate(180.874687 319.63625) scale(0.1 -0.1)">
       <defs>
        <path id="DejaVuSans-30" d="M 2034 4250 
Q 1547 4250 1301 3770 
Q 1056 3291 1056 2328 
Q 1056 1369 1301 889 
Q 1547 409 2034 409 
Q 2525 409 2770 889 
Q 3016 1369 3016 2328 
Q 3016 3291 2770 3770 
Q 2525 4250 2034 4250 
z
M 2034 4750 
Q 2819 4750 3233 4129 
Q 3647 3509 3647 2328 
Q 3647 1150 3233 529 
Q 2819 -91 2034 -91 
Q 1250 -91 836 529 
Q 422 1150 422 2328 
Q 422 3509 836 4129 
Q 1250 4750 2034 4750 
z
" transform="scale(0.015625)"/>
       </defs>
       <use xlink:href="#DejaVuSans-30"/>
      </g>
     </g>
    </g>
    <g id="xtick_3">
     <g id="line2d_5">
      <path d="M 310.874119 305.037813 
L 310.874119 27.837812 
" clip-path="url(#pc6a3f52ccd)" style="fill: none; stroke-dasharray: 2.96,1.28; stroke-dashoffset: 0; stroke: #b0b0b0; stroke-opacity: 0.5; stroke-width: 0.8"/>
     </g>
     <g id="line2d_6">
      <g>
       <use xlink:href="#mf972f7bbde" x="310.874119" y="305.037813" style="stroke: #000000; stroke-width: 0.8"/>
      </g>
     </g>
     <g id="text_3">
      <!-- 1 -->
      <g transform="translate(307.692869 319.63625) scale(0.1 -0.1)">
       <use xlink:href="#DejaVuSans-31"/>
      </g>
     </g>
    </g>
    <g id="text_4">
     <!-- x -->
     <g transform="translate(180.504687 334.834063) scale(0.12 -0.12)">
      <defs>
       <path id="DejaVuSans-78" d="M 3513 3500 
L 2247 1797 
L 3578 0 
L 2900 0 
L 1881 1375 
L 863 0 
L 184 0 
L 1544 1831 
L 300 3500 
L 978 3500 
L 1906 2253 
L 2834 3500 
L 3513 3500 
z
" transform="scale(0.015625)"/>
      </defs>
      <use xlink:href="#DejaVuSans-78"/>
     </g>
    </g>
   </g>
   <g id="matplotlib.axis_2">
    <g id="ytick_1">
     <g id="line2d_7">
      <path d="M 44.555937 293.255994 
L 323.555938 293.255994 
" clip-path="url(#pc6a3f52ccd)" style="fill: none; stroke-dasharray: 2.96,1.28; stroke-dashoffset: 0; stroke: #b0b0b0; stroke-opacity: 0.5; stroke-width: 0.8"/>
     </g>
     <g id="line2d_8">
      <defs>
       <path id="m2385f48c29" d="M 0 0 
L -3.5 0 
" style="stroke: #000000; stroke-width: 0.8"/>
      </defs>
      <g>
       <use xlink:href="#m2385f48c29" x="44.555937" y="293.255994" style="stroke: #000000; stroke-width: 0.8"/>
      </g>
     </g>
     <g id="text_5">
      <!-- −1 -->
      <g transform="translate(22.81375 297.055213) scale(0.1 -0.1)">
       <use xlink:href="#DejaVuSans-2212"/>
       <use xlink:href="#DejaVuSans-31" transform="translate(83.789062 0)"/>
      </g>
     </g>
    </g>
    <g id="ytick_2">
     <g id="line2d_9">
      <path d="M 44.555937 166.437813 
L 323.555938 166.437813 
" clip-path="url(#pc6a3f52ccd)" style="fill: none; stroke-dasharray: 2.96,1.28; stroke-dashoffset: 0; stroke: #b0b0b0; stroke-opacity: 0.5; stroke-width: 0.8"/>
     </g>
     <g id="line2d_10">
      <g>
       <use xlink:href="#m2385f48c29" x="44.555937" y="166.437813" style="stroke: #000000; stroke-width: 0.8"/>
      </g>
     </g>
     <g id="text_6">
      <!-- 0 -->
      <g transform="translate(31.193437 170.237031) scale(0.1 -0.1)">
       <use xlink:href="#DejaVuSans-30"/>
      </g>
     </g>
    </g>
    <g id="ytick_3">
     <g id="line2d_11">
      <path d="M 44.555937 39.619631 
L 323.555938 39.619631 
" clip-path="url(#pc6a3f52ccd)" style="fill: none; stroke-dasharray: 2.96,1.28; stroke-dashoffset: 0; stroke: #b0b0b0; stroke-opacity: 0.5; stroke-width: 0.8"/>
     </g>
     <g id="line2d_12">
      <g>
       <use xlink:href="#m2385f48c29" x="44.555937" y="39.619631" style="stroke: #000000; stroke-width: 0.8"/>
      </g>
     </g>
     <g id="text_7">
      <!-- 1 -->
      <g transform="translate(31.193437 43.418849) scale(0.1 -0.1)">
       <use xlink:href="#DejaVuSans-31"/>
      </g>
     </g>
    </g>
    <g id="text_8">
     <!-- y -->
     <g transform="translate(16.318125 169.989063) rotate(-90) scale(0.12 -0.12)">
      <defs>
       <path id="DejaVuSans-79" d="M 2059 -325 
Q 1816 -950 1584 -1140 
Q 1353 -1331 966 -1331 
L 506 -1331 
L 506 -850 
L 844 -850 
Q 1081 -850 1212 -737 
Q 1344 -625 1503 -206 
L 1606 56 
L 191 3500 
L 800 3500 
L 1894 763 
L 2988 3500 
L 3597 3500 
L 2059 -325 
z
" transform="scale(0.015625)"/>
      </defs>
      <use xlink:href="#DejaVuSans-79"/>
     </g>
    </g>
   </g>
   <g id="patch_3">
    <path d="M 44.555937 305.037813 
L 44.555937 27.837812 
" style="fill: none; stroke: #000000; stroke-width: 0.8; stroke-linejoin: miter; stroke-linecap: square"/>
   </g>
   <g id="patch_4">
    <path d="M 323.555938 305.037813 
L 323.555938 27.837812 
" style="fill: none; stroke: #000000; stroke-width: 0.8; stroke-linejoin: miter; stroke-linecap: square"/>
   </g>
   <g id="patch_5">
    <path d="M 44.555937 305.037813 
L 323.555938 305.037813 
" style="fill: none; stroke: #000000; stroke-width: 0.8; stroke-linejoin: miter; stroke-linecap: square"/>
   </g>
   <g id="patch_6">
    <path d="M 44.555937 27.837812 
L 323.555938 27.837812 
" style="fill: none; stroke: #000000; stroke-width: 0.8; stroke-linejoin: miter; stroke-linecap: square"/>
   </g>
   <g id="text_9">
    <!-- Compression -->
    <g transform="translate(138.637969 17.837812) scale(0.14 -0.14)">
     <defs>
      <path id="DejaVuSans-43" d="M 4122 4306 
L 4122 3641 
Q 3803 3938 3442 4084 
Q 3081 4231 2675 4231 
Q 1875 4231 1450 3742 
Q 1025 3253 1025 2328 
Q 1025 1406 1450 917 
Q 1875 428 2675 428 
Q 3081 428 3442 575 
Q 3803 722 4122 1019 
L 4122 359 
Q 3791 134 3420 21 
Q 3050 -91 2638 -91 
Q 1578 -91 968 557 
Q 359 1206 359 2328 
Q 359 3453 968 4101 
Q 1578 4750 2638 4750 
Q 3056 4750 3426 4639 
Q 3797 4528 4122 4306 
z
" transform="scale(0.015625)"/>
      <path id="DejaVuSans-6f" d="M 1959 3097 
Q 1497 3097 1228 2736 
Q 959 2375 959 1747 
Q 959 1119 1226 758 
Q 1494 397 1959 397 
Q 2419 397 2687 759 
Q 2956 1122 2956 1747 
Q 2956 2369 2687 2733 
Q 2419 3097 1959 3097 
z
M 1959 3584 
Q 2709 3584 3137 3096 
Q 3566 2609 3566 1747 
Q 3566 888 3137 398 
Q 2709 -91 1959 -91 
Q 1206 -91 779 398 
Q 353 888 353 1747 
Q 353 2609 779 3096 
Q 1206 3584 1959 3584 
z
" transform="scale(0.015625)"/>
      <path id="DejaVuSans-6d" d="M 3328 2828 
Q 3544 3216 3844 3400 
Q 4144 3584 4550 3584 
Q 5097 3584 5394 3201 
Q 5691 2819 5691 2113 
L 5691 0 
L 5113 0 
L 5113 2094 
Q 5113 2597 4934 2840 
Q 4756 3084 4391 3084 
Q 3944 3084 3684 2787 
Q 3425 2491 3425 1978 
L 3425 0 
L 2847 0 
L 2847 2094 
Q 2847 2600 2669 2842 
Q 2491 3084 2119 3084 
Q 1678 3084 1418 2786 
Q 1159 2488 1159 1978 
L 1159 0 
L 581 0 
L 581 3500 
L 1159 3500 
L 1159 2956 
Q 1356 3278 1631 3431 
Q 1906 3584 2284 3584 
Q 2666 3584 2933 3390 
Q 3200 3197 3328 2828 
z
" transform="scale(0.015625)"/>
      <path id="DejaVuSans-70" d="M 1159 525 
L 1159 -1331 
L 581 -1331 
L 581 3500 
L 1159 3500 
L 1159 2969 
Q 1341 3281 1617 3432 
Q 1894 3584 2278 3584 
Q 2916 3584 3314 3078 
Q 3713 2572 3713 1747 
Q 3713 922 3314 415 
Q 2916 -91 2278 -91 
Q 1894 -91 1617 61 
Q 1341 213 1159 525 
z
M 3116 1747 
Q 3116 2381 2855 2742 
Q 2594 3103 2138 3103 
Q 1681 3103 1420 2742 
Q 1159 2381 1159 1747 
Q 1159 1113 1420 752 
Q 1681 391 2138 391 
Q 2594 391 2855 752 
Q 3116 1113 3116 1747 
z
" transform="scale(0.015625)"/>
      <path id="DejaVuSans-72" d="M 2631 2963 
Q 2534 3019 2420 3045 
Q 2306 3072 2169 3072 
Q 1681 3072 1420 2755 
Q 1159 2438 1159 1844 
L 1159 0 
L 581 0 
L 581 3500 
L 1159 3500 
L 1159 2956 
Q 1341 3275 1631 3429 
Q 1922 3584 2338 3584 
Q 2397 3584 2469 3576 
Q 2541 3569 2628 3553 
L 2631 2963 
z
" transform="scale(0.015625)"/>
      <path id="DejaVuSans-65" d="M 3597 1894 
L 3597 1613 
L 953 1613 
Q 991 1019 1311 708 
Q 1631 397 2203 397 
Q 2534 397 2845 478 
Q 3156 559 3463 722 
L 3463 178 
Q 3153 47 2828 -22 
Q 2503 -91 2169 -91 
Q 1331 -91 842 396 
Q 353 884 353 1716 
Q 353 2575 817 3079 
Q 1281 3584 2069 3584 
Q 2775 3584 3186 3129 
Q 3597 2675 3597 1894 
z
M 3022 2063 
Q 3016 2534 2758 2815 
Q 2500 3097 2075 3097 
Q 1594 3097 1305 2825 
Q 1016 2553 972 2059 
L 3022 2063 
z
" transform="scale(0.015625)"/>
      <path id="DejaVuSans-73" d="M 2834 3397 
L 2834 2853 
Q 2591 2978 2328 3040 
Q 2066 3103 1784 3103 
Q 1356 3103 1142 2972 
Q 928 2841 928 2578 
Q 928 2378 1081 2264 
Q 1234 2150 1697 2047 
L 1894 2003 
Q 2506 1872 2764 1633 
Q 3022 1394 3022 966 
Q 3022 478 2636 193 
Q 2250 -91 1575 -91 
Q 1294 -91 989 -36 
Q 684 19 347 128 
L 347 722 
Q 666 556 975 473 
Q 1284 391 1588 391 
Q 1994 391 2212 530 
Q 2431 669 2431 922 
Q 2431 1156 2273 1281 
Q 2116 1406 1581 1522 
L 1381 1569 
Q 847 1681 609 1914 
Q 372 2147 372 2553 
Q 372 3047 722 3315 
Q 1072 3584 1716 3584 
Q 2034 3584 2315 3537 
Q 2597 3491 2834 3397 
z
" transform="scale(0.015625)"/>
      <path id="DejaVuSans-69" d="M 603 3500 
L 1178 3500 
L 1178 0 
L 603 0 
L 603 3500 
z
M 603 4863 
L 1178 4863 
L 1178 4134 
L 603 4134 
L 603 4863 
z
" transform="scale(0.015625)"/>
      <path id="DejaVuSans-6e" d="M 3513 2113 
L 3513 0 
L 2938 0 
L 2938 2094 
Q 2938 2591 2744 2837 
Q 2550 3084 2163 3084 
Q 1697 3084 1428 2787 
Q 1159 2491 1159 1978 
L 1159 0 
L 581 0 
L 581 3500 
L 1159 3500 
L 1159 2956 
Q 1366 3272 1645 3428 
Q 1925 3584 2291 3584 
Q 2894 3584 3203 3211 
Q 3513 2838 3513 2113 
z
" transform="scale(0.015625)"/>
     </defs>
     <use xlink:href="#DejaVuSans-43"/>
     <use xlink:href="#DejaVuSans-6f" transform="translate(69.824219 0)"/>
     <use xlink:href="#DejaVuSans-6d" transform="translate(131.005859 0)"/>
     <use xlink:href="#DejaVuSans-70" transform="translate(228.417969 0)"/>
     <use xlink:href="#DejaVuSans-72" transform="translate(291.894531 0)"/>
     <use xlink:href="#DejaVuSans-65" transform="translate(330.757812 0)"/>
     <use xlink:href="#DejaVuSans-73" transform="translate(392.28125 0)"/>
     <use xlink:href="#DejaVuSans-73" transform="translate(444.380859 0)"/>
     <use xlink:href="#DejaVuSans-69" transform="translate(496.480469 0)"/>
     <use xlink:href="#DejaVuSans-6f" transform="translate(524.263672 0)"/>
     <use xlink:href="#DejaVuSans-6e" transform="translate(585.445312 0)"/>
    </g>
   </g>
  </g>
 </g>
 <defs>
  <clipPath id="pc6a3f52ccd">
   <rect x="44.555937" y="27.837812" width="279" height="277.2"/>
  </clipPath>
 </defs>
</svg>
