<?xml version="1.0" encoding="utf-8" standalone="no"?>
<!DOCTYPE svg PUBLIC "-//W3C//DTD SVG 1.1//EN"
  "http://www.w3.org/Graphics/SVG/1.1/DTD/svg11.dtd">
<svg xmlns:xlink="http://www.w3.org/1999/xlink" width="330.755937pt" height="344.529688pt" viewBox="0 0 330.755937 344.529688" xmlns="http://www.w3.org/2000/svg" version="1.1">
 <metadata>
  <rdf:RDF xmlns:dc="http://purl.org/dc/elements/1.1/" xmlns:cc="http://creativecommons.org/ns#" xmlns:rdf="http://www.w3.org/1999/02/22-rdf-syntax-ns#">
   <cc:Work>
    <dc:type rdf:resource="http://purl.org/dc/dcmitype/StillImage"/>
    <dc:date>2025-02-09T20:55:44.171417</dc:date>
    <dc:format>image/svg+xml</dc:format>
    <dc:creator>
     <cc:Agent>
      <dc:title>Matplotlib v3.10.0, https://matplotlib.org/</dc:title>
     </cc:Agent>
    </dc:creator>
   </cc:Work>
  </rdf:RDF>
 </metadata>
 <defs>
  <style type="text/css">*{stroke-linejoin: round; stroke-linecap: butt}</style>
 </defs>
 <g id="figure_1">
  <g id="patch_1">
   <path d="M -0 344.529688 
L 330.755937 344.529688 
L 330.755937 0 
L -0 0 
z
" style="fill: #ffffff"/>
  </g>
  <g id="axes_1">
   <g id="patch_2">
    <path d="M 44.555937 305.037813 
L 323.555938 305.037813 
L 323.555938 27.837812 
L 44.555937 27.837812 
z
" style="fill: #ffffff"/>
   </g>
   <g id="Quiver_1">
    <path d="M 57.977566 293.995805 
L 46.810667 305.162704 
L 49.030098 305.902514 
L 39.412562 311.081188 
L 44.591236 301.463652 
L 45.331046 303.683083 
L 56.497945 292.516184 
L 57.977566 293.995805 
" clip-path="url(#p177802d48d)" style="fill: #0000ff"/>
    <path d="M 94.079642 294.107363 
L 83.916767 301.36656 
L 85.984376 302.461177 
L 75.646328 305.988275 
L 82.335654 297.352965 
L 82.700526 299.663823 
L 92.863401 292.404626 
L 94.079642 294.107363 
" clip-path="url(#p177802d48d)" style="fill: #0000ff"/>
    <path d="M 130.117426 294.21765 
L 120.947132 298.147776 
L 122.733064 299.658949 
L 111.880095 300.895363 
L 120.260235 293.889016 
L 120.122856 296.224465 
L 129.29315 292.294339 
L 130.117426 294.21765 
" clip-path="url(#p177802d48d)" style="fill: #0000ff"/>
    <path d="M 166.087016 294.291729 
L 157.583435 295.506526 
L 158.915094 297.430034 
L 148.113861 295.802451 
L 158.027321 291.215626 
L 157.287511 293.435057 
L 165.791092 292.22026 
L 166.087016 294.291729 
" clip-path="url(#p177802d48d)" style="fill: #0000ff"/>
    <path d="M 202.024859 294.291729 
L 193.521277 293.076932 
L 194.261087 295.296363 
L 184.347627 290.709538 
L 195.14886 289.081955 
L 193.817201 291.005462 
L 202.320783 292.22026 
L 202.024859 294.291729 
" clip-path="url(#p177802d48d)" style="fill: #0000ff"/>
    <path d="M 237.994449 294.21765 
L 228.824155 290.287524 
L 228.961534 292.622973 
L 220.581393 285.616626 
L 231.434362 286.85304 
L 229.648431 288.364213 
L 238.818725 292.294339 
L 237.994449 294.21765 
" clip-path="url(#p177802d48d)" style="fill: #0000ff"/>
    <path d="M 274.032233 294.107363 
L 263.869357 286.848166 
L 263.504485 289.159024 
L 256.81516 280.523713 
L 267.153207 284.050812 
L 265.085598 285.145429 
L 275.248474 292.404626 
L 274.032233 294.107363 
" clip-path="url(#p177802d48d)" style="fill: #0000ff"/>
    <path d="M 310.134309 293.995805 
L 298.96741 282.828906 
L 298.227599 285.048337 
L 293.048926 275.430801 
L 302.666462 280.609474 
L 300.447031 281.349285 
L 311.61393 292.516184 
L 310.134309 293.995805 
" clip-path="url(#p177802d48d)" style="fill: #0000ff"/>
    <path d="M 58.089124 257.630349 
L 50.829927 267.793224 
L 53.140785 268.158096 
L 44.505475 274.847422 
L 48.032573 264.509374 
L 49.12719 266.576983 
L 56.386387 256.414108 
L 58.089124 257.630349 
" clip-path="url(#p177802d48d)" style="fill: #0000ff"/>
    <path d="M 94.211332 257.762039 
L 88.137346 263.836025 
L 90.356777 264.575836 
L 80.739241 269.754509 
L 85.917914 260.136973 
L 86.657725 262.356404 
L 92.731711 256.282418 
L 94.211332 257.762039 
" clip-path="url(#p177802d48d)" style="fill: #0000ff"/>
    <path d="M 130.243579 257.91938 
L 125.585666 260.714128 
L 127.5594 261.970141 
L 116.973007 264.661597 
L 124.329653 256.587229 
L 124.509084 258.919824 
L 129.166997 256.125076 
L 130.243579 257.91938 
" clip-path="url(#p177802d48d)" style="fill: #0000ff"/>
    <path d="M 166.144241 258.048161 
L 162.645353 258.747938 
L 164.081658 260.594617 
L 153.206773 259.568684 
L 162.850539 254.439022 
L 162.23498 256.696073 
L 165.733868 255.996296 
L 166.144241 258.048161 
" clip-path="url(#p177802d48d)" style="fill: #0000ff"/>
    <path d="M 201.967634 258.048161 
L 198.468746 257.348383 
L 199.084305 259.605435 
L 189.44054 254.475772 
L 200.315424 253.449839 
L 198.879119 255.296518 
L 202.378007 255.996296 
L 201.967634 258.048161 
" clip-path="url(#p177802d48d)" style="fill: #0000ff"/>
    <path d="M 237.868296 257.91938 
L 233.210382 255.124632 
L 233.030952 257.457227 
L 225.674306 249.382859 
L 236.260699 252.074315 
L 234.286965 253.330328 
L 238.944878 256.125076 
L 237.868296 257.91938 
" clip-path="url(#p177802d48d)" style="fill: #0000ff"/>
    <path d="M 273.900543 257.762039 
L 267.826556 251.688052 
L 267.086745 253.907483 
L 261.908072 244.289947 
L 271.525608 249.46862 
L 269.306177 250.208431 
L 275.380164 256.282418 
L 273.900543 257.762039 
" clip-path="url(#p177802d48d)" style="fill: #0000ff"/>
    <path d="M 310.022751 257.630349 
L 302.763554 247.467473 
L 301.668937 249.535082 
L 298.141838 239.197035 
L 306.777149 245.88636 
L 304.466291 246.251232 
L 311.725488 256.414108 
L 310.022751 257.630349 
" clip-path="url(#p177802d48d)" style="fill: #0000ff"/>
    <path d="M 58.199411 221.2006 
L 54.269285 230.370894 
L 56.604734 230.233515 
L 49.598387 238.613655 
L 50.834801 227.760686 
L 52.345974 229.546618 
L 56.2761 220.376324 
L 58.199411 221.2006 
" clip-path="url(#p177802d48d)" style="fill: #0000ff"/>
    <path d="M 94.368674 221.326753 
L 91.573926 225.984666 
L 93.906521 226.164097 
L 85.832153 233.520743 
L 88.523609 222.93435 
L 89.779622 224.908084 
L 92.57437 220.250171 
L 94.368674 221.326753 
" clip-path="url(#p177802d48d)" style="fill: #0000ff"/>
    <path d="M 130.445099 221.528272 
L 129.464024 222.509347 
L 131.683456 223.249157 
L 122.06592 228.42783 
L 127.244593 218.810294 
L 127.984403 221.029726 
L 128.965478 220.048651 
L 130.445099 221.528272 
" clip-path="url(#p177802d48d)" style="fill: #0000ff"/>
    <path d="M 166.1937 221.552399 
L 165.429763 221.807044 
L 166.702991 223.080272 
L 158.299686 223.334918 
L 165.175118 218.496651 
L 164.920472 220.279171 
L 165.684409 220.024525 
L 166.1937 221.552399 
" clip-path="url(#p177802d48d)" style="fill: #0000ff"/>
    <path d="M 201.918175 221.552399 
L 201.154238 221.297753 
L 201.408884 223.080272 
L 194.533452 218.242006 
L 202.936757 218.496651 
L 201.663529 219.769879 
L 202.427466 220.024525 
L 201.918175 221.552399 
" clip-path="url(#p177802d48d)" style="fill: #0000ff"/>
    <path d="M 237.666776 221.528272 
L 236.685702 220.547198 
L 235.945892 222.766629 
L 230.767218 213.149093 
L 240.384754 218.327767 
L 238.165323 219.067577 
L 239.146397 220.048651 
L 237.666776 221.528272 
" clip-path="url(#p177802d48d)" style="fill: #0000ff"/>
    <path d="M 273.743201 221.326753 
L 270.948453 216.66884 
L 269.69244 218.642574 
L 267.000984 208.056181 
L 275.075352 215.412827 
L 272.742757 215.592257 
L 275.537505 220.250171 
L 273.743201 221.326753 
" clip-path="url(#p177802d48d)" style="fill: #0000ff"/>
    <path d="M 309.912464 221.2006 
L 305.982338 212.030306 
L 304.471165 213.816237 
L 303.234751 202.963268 
L 310.241098 211.343409 
L 307.905649 211.20603 
L 311.835775 220.376324 
L 309.912464 221.2006 
" clip-path="url(#p177802d48d)" style="fill: #0000ff"/>
    <path d="M 58.27349 184.702658 
L 57.058693 193.206239 
L 59.278124 192.466429 
L 54.691299 202.379889 
L 53.063716 191.578656 
L 54.987224 192.910315 
L 56.202021 184.406734 
L 58.27349 184.702658 
" clip-path="url(#p177802d48d)" style="fill: #0000ff"/>
    <path d="M 94.497454 184.759882 
L 93.797677 188.25877 
L 96.054728 187.643211 
L 90.925066 197.286977 
L 89.899133 186.412092 
L 91.745812 187.848397 
L 92.445589 184.349509 
L 94.497454 184.759882 
" clip-path="url(#p177802d48d)" style="fill: #0000ff"/>
    <path d="M 130.469225 184.809341 
L 130.214579 185.573278 
L 131.997099 185.318632 
L 127.158832 192.194064 
L 127.413478 183.790759 
L 128.686706 185.063987 
L 128.941351 184.30005 
L 130.469225 184.809341 
" clip-path="url(#p177802d48d)" style="fill: #0000ff"/>
    <path d="M 166.1937 184.809341 
L 165.939054 185.063987 
L 166.702991 185.318632 
L 163.392598 187.101152 
L 165.175118 183.790759 
L 165.429763 184.554696 
L 165.684409 184.30005 
L 166.1937 184.809341 
" clip-path="url(#p177802d48d)" style="fill: #0000ff"/>
    <path d="M 201.918175 184.809341 
L 201.663529 184.554696 
L 201.408884 185.318632 
L 199.626364 182.008239 
L 202.936757 183.790759 
L 202.172821 184.045404 
L 202.427466 184.30005 
L 201.918175 184.809341 
" clip-path="url(#p177802d48d)" style="fill: #0000ff"/>
    <path d="M 237.64265 184.809341 
L 237.388004 184.045404 
L 236.114776 185.318632 
L 235.860131 176.915327 
L 240.698397 183.790759 
L 238.915878 183.536113 
L 239.170524 184.30005 
L 237.64265 184.809341 
" clip-path="url(#p177802d48d)" style="fill: #0000ff"/>
    <path d="M 273.614421 184.759882 
L 272.914643 181.260994 
L 271.067964 182.697299 
L 272.093897 171.822415 
L 277.22356 181.46618 
L 274.966508 180.850621 
L 275.666286 184.349509 
L 273.614421 184.759882 
" clip-path="url(#p177802d48d)" style="fill: #0000ff"/>
    <path d="M 309.838385 184.702658 
L 308.623587 176.199076 
L 306.70008 177.530735 
L 308.327663 166.729502 
L 312.914488 176.642962 
L 310.695057 175.903152 
L 311.909854 184.406734 
L 309.838385 184.702658 
" clip-path="url(#p177802d48d)" style="fill: #0000ff"/>
    <path d="M 58.27349 148.172967 
L 59.488288 156.676549 
L 61.411795 155.34489 
L 59.784212 166.146123 
L 55.197387 156.232663 
L 57.416818 156.972473 
L 56.202021 148.468891 
L 58.27349 148.172967 
" clip-path="url(#p177802d48d)" style="fill: #0000ff"/>
    <path d="M 94.497454 148.115743 
L 95.197232 151.614631 
L 97.043911 150.178326 
L 96.017978 161.05321 
L 90.888315 151.409445 
L 93.145367 152.025004 
L 92.445589 148.526116 
L 94.497454 148.115743 
" clip-path="url(#p177802d48d)" style="fill: #0000ff"/>
    <path d="M 130.469225 148.066284 
L 130.723871 148.830221 
L 131.997099 147.556993 
L 132.251744 155.960298 
L 127.413478 149.084866 
L 129.195997 149.339512 
L 128.941351 148.575575 
L 130.469225 148.066284 
" clip-path="url(#p177802d48d)" style="fill: #0000ff"/>
    <path d="M 166.1937 148.066284 
L 166.448346 148.320929 
L 166.702991 147.556993 
L 168.485511 150.867386 
L 165.175118 149.084866 
L 165.939054 148.830221 
L 165.684409 148.575575 
L 166.1937 148.066284 
" clip-path="url(#p177802d48d)" style="fill: #0000ff"/>
    <path d="M 201.918175 148.066284 
L 202.172821 147.811638 
L 201.408884 147.556993 
L 204.719277 145.774473 
L 202.936757 149.084866 
L 202.682112 148.320929 
L 202.427466 148.575575 
L 201.918175 148.066284 
" clip-path="url(#p177802d48d)" style="fill: #0000ff"/>
    <path d="M 237.64265 148.066284 
L 237.897296 147.302347 
L 236.114776 147.556993 
L 240.953043 140.681561 
L 240.698397 149.084866 
L 239.425169 147.811638 
L 239.170524 148.575575 
L 237.64265 148.066284 
" clip-path="url(#p177802d48d)" style="fill: #0000ff"/>
    <path d="M 273.614421 148.115743 
L 274.314198 144.616855 
L 272.057147 145.232414 
L 277.186809 135.588648 
L 278.212742 146.463533 
L 276.366063 145.027228 
L 275.666286 148.526116 
L 273.614421 148.115743 
" clip-path="url(#p177802d48d)" style="fill: #0000ff"/>
    <path d="M 309.838385 148.172967 
L 311.053182 139.669386 
L 308.833751 140.409196 
L 313.420576 130.495736 
L 315.048159 141.296969 
L 313.124651 139.96531 
L 311.909854 148.468891 
L 309.838385 148.172967 
" clip-path="url(#p177802d48d)" style="fill: #0000ff"/>
    <path d="M 58.199411 111.675025 
L 62.129537 120.845319 
L 63.64071 119.059388 
L 64.877124 129.912357 
L 57.870777 121.532216 
L 60.206226 121.669595 
L 56.2761 112.499301 
L 58.199411 111.675025 
" clip-path="url(#p177802d48d)" style="fill: #0000ff"/>
    <path d="M 94.368674 111.548872 
L 97.163422 116.206785 
L 98.419435 114.233051 
L 101.110891 124.819444 
L 93.036523 117.462798 
L 95.369118 117.283368 
L 92.57437 112.625454 
L 94.368674 111.548872 
" clip-path="url(#p177802d48d)" style="fill: #0000ff"/>
    <path d="M 130.445099 111.347353 
L 131.426173 112.328427 
L 132.165983 110.108996 
L 137.344657 119.726532 
L 127.727121 114.547858 
L 129.946552 113.808048 
L 128.965478 112.826974 
L 130.445099 111.347353 
" clip-path="url(#p177802d48d)" style="fill: #0000ff"/>
    <path d="M 166.1937 111.323226 
L 166.957637 111.577872 
L 166.702991 109.795353 
L 173.578423 114.633619 
L 165.175118 114.378974 
L 166.448346 113.105746 
L 165.684409 112.8511 
L 166.1937 111.323226 
" clip-path="url(#p177802d48d)" style="fill: #0000ff"/>
    <path d="M 201.918175 111.323226 
L 202.682112 111.068581 
L 201.408884 109.795353 
L 209.812189 109.540707 
L 202.936757 114.378974 
L 203.191403 112.596454 
L 202.427466 112.8511 
L 201.918175 111.323226 
" clip-path="url(#p177802d48d)" style="fill: #0000ff"/>
    <path d="M 237.666776 111.347353 
L 238.647851 110.366278 
L 236.428419 109.626468 
L 246.045955 104.447795 
L 240.867282 114.065331 
L 240.127472 111.845899 
L 239.146397 112.826974 
L 237.666776 111.347353 
" clip-path="url(#p177802d48d)" style="fill: #0000ff"/>
    <path d="M 273.743201 111.548872 
L 276.537949 106.890959 
L 274.205354 106.711528 
L 282.279722 99.354882 
L 279.588266 109.941275 
L 278.332253 107.967541 
L 275.537505 112.625454 
L 273.743201 111.548872 
" clip-path="url(#p177802d48d)" style="fill: #0000ff"/>
    <path d="M 309.912464 111.675025 
L 313.84259 102.504731 
L 311.507141 102.64211 
L 318.513488 94.26197 
L 317.277074 105.114939 
L 315.765901 103.329007 
L 311.835775 112.499301 
L 309.912464 111.675025 
" clip-path="url(#p177802d48d)" style="fill: #0000ff"/>
    <path d="M 58.089124 75.245276 
L 65.348321 85.408152 
L 66.442938 83.340543 
L 69.970037 93.67859 
L 61.334726 86.989265 
L 63.645584 86.624393 
L 56.386387 76.461517 
L 58.089124 75.245276 
" clip-path="url(#p177802d48d)" style="fill: #0000ff"/>
    <path d="M 94.211332 75.113586 
L 100.285319 81.187573 
L 101.02513 78.968142 
L 106.203803 88.585678 
L 96.586267 83.407005 
L 98.805698 82.667194 
L 92.731711 76.593207 
L 94.211332 75.113586 
" clip-path="url(#p177802d48d)" style="fill: #0000ff"/>
    <path d="M 130.243579 74.956245 
L 134.901493 77.750993 
L 135.080923 75.418398 
L 142.437569 83.492766 
L 131.851176 80.80131 
L 133.82491 79.545297 
L 129.166997 76.750549 
L 130.243579 74.956245 
" clip-path="url(#p177802d48d)" style="fill: #0000ff"/>
    <path d="M 166.144241 74.827464 
L 169.643129 75.527242 
L 169.02757 73.27019 
L 178.671335 78.399853 
L 167.796451 79.425786 
L 169.232756 77.579107 
L 165.733868 76.879329 
L 166.144241 74.827464 
" clip-path="url(#p177802d48d)" style="fill: #0000ff"/>
    <path d="M 201.967634 74.827464 
L 205.466522 74.127687 
L 204.030217 72.281008 
L 214.905102 73.306941 
L 205.261336 78.436603 
L 205.876895 76.179552 
L 202.378007 76.879329 
L 201.967634 74.827464 
" clip-path="url(#p177802d48d)" style="fill: #0000ff"/>
    <path d="M 237.868296 74.956245 
L 242.526209 72.161497 
L 240.552475 70.905484 
L 251.138868 68.214028 
L 243.782222 76.288396 
L 243.602791 73.955801 
L 238.944878 76.750549 
L 237.868296 74.956245 
" clip-path="url(#p177802d48d)" style="fill: #0000ff"/>
    <path d="M 273.900543 75.113586 
L 279.974529 69.0396 
L 277.755098 68.299789 
L 287.372634 63.121116 
L 282.193961 72.738652 
L 281.45415 70.519221 
L 275.380164 76.593207 
L 273.900543 75.113586 
" clip-path="url(#p177802d48d)" style="fill: #0000ff"/>
    <path d="M 310.022751 75.245276 
L 317.281948 65.082401 
L 314.97109 64.717529 
L 323.6064 58.028203 
L 320.079302 68.366251 
L 318.984685 66.298642 
L 311.725488 76.461517 
L 310.022751 75.245276 
" clip-path="url(#p177802d48d)" style="fill: #0000ff"/>
    <path d="M 57.977566 38.87982 
L 69.144465 50.046719 
L 69.884276 47.827288 
L 75.062949 57.444824 
L 65.445413 52.266151 
L 67.664844 51.52634 
L 56.497945 40.359441 
L 57.977566 38.87982 
" clip-path="url(#p177802d48d)" style="fill: #0000ff"/>
    <path d="M 94.079642 38.768262 
L 104.242518 46.027459 
L 104.60739 43.716601 
L 111.296715 52.351912 
L 100.958668 48.824813 
L 103.026277 47.730196 
L 92.863401 40.470999 
L 94.079642 38.768262 
" clip-path="url(#p177802d48d)" style="fill: #0000ff"/>
    <path d="M 130.117426 38.657975 
L 139.28772 42.588101 
L 139.150341 40.252652 
L 147.530482 47.258999 
L 136.677513 46.022585 
L 138.463444 44.511412 
L 129.29315 40.581286 
L 130.117426 38.657975 
" clip-path="url(#p177802d48d)" style="fill: #0000ff"/>
    <path d="M 166.087016 38.583896 
L 174.590598 39.798693 
L 173.850788 37.579262 
L 183.764248 42.166087 
L 172.963015 43.79367 
L 174.294674 41.870163 
L 165.791092 40.655365 
L 166.087016 38.583896 
" clip-path="url(#p177802d48d)" style="fill: #0000ff"/>
    <path d="M 202.024859 38.583896 
L 210.52844 37.369099 
L 209.196781 35.445591 
L 219.998014 37.073174 
L 210.084554 41.659999 
L 210.824364 39.440568 
L 202.320783 40.655365 
L 202.024859 38.583896 
" clip-path="url(#p177802d48d)" style="fill: #0000ff"/>
    <path d="M 237.994449 38.657975 
L 247.164743 34.727849 
L 245.378811 33.216676 
L 256.23178 31.980262 
L 247.85164 38.986609 
L 247.989019 36.65116 
L 238.818725 40.581286 
L 237.994449 38.657975 
" clip-path="url(#p177802d48d)" style="fill: #0000ff"/>
    <path d="M 274.032233 38.768262 
L 284.195108 31.509065 
L 282.127499 30.414448 
L 292.465547 26.88735 
L 285.776221 35.52266 
L 285.411349 33.211802 
L 275.248474 40.470999 
L 274.032233 38.768262 
" clip-path="url(#p177802d48d)" style="fill: #0000ff"/>
    <path d="M 310.134309 38.87982 
L 321.301208 27.712921 
L 319.081777 26.973111 
L 328.699313 21.794437 
L 323.520639 31.411973 
L 322.780829 29.192542 
L 311.61393 40.359441 
L 310.134309 38.87982 
" clip-path="url(#p177802d48d)" style="fill: #0000ff"/>
   </g>
   <g id="matplotlib.axis_1">
    <g id="xtick_1">
     <g id="line2d_1">
      <path d="M 57.237756 305.037813 
L 57.237756 27.837812 
" clip-path="url(#p177802d48d)" style="fill: none; stroke-dasharray: 2.96,1.28; stroke-dashoffset: 0; stroke: #b0b0b0; stroke-opacity: 0.5; stroke-width: 0.8"/>
     </g>
     <g id="line2d_2">
      <defs>
       <path id="m91c34af3bd" d="M 0 0 
L 0 3.5 
" style="stroke: #000000; stroke-width: 0.8"/>
      </defs>
      <g>
       <use xlink:href="#m91c34af3bd" x="57.237756" y="305.037813" style="stroke: #000000; stroke-width: 0.8"/>
      </g>
     </g>
     <g id="text_1">
      <!-- −1 -->
      <g transform="translate(49.866662 319.63625) scale(0.1 -0.1)">
       <defs>
        <path id="DejaVuSans-2212" d="M 678 2272 
L 4684 2272 
L 4684 1741 
L 678 1741 
L 678 2272 
z
" transform="scale(0.015625)"/>
        <path id="DejaVuSans-31" d="M 794 531 
L 1825 531 
L 1825 4091 
L 703 3866 
L 703 4441 
L 1819 4666 
L 2450 4666 
L 2450 531 
L 3481 531 
L 3481 0 
L 794 0 
L 794 531 
z
" transform="scale(0.015625)"/>
       </defs>
       <use xlink:href="#DejaVuSans-2212"/>
       <use xlink:href="#DejaVuSans-31" transform="translate(83.789062 0)"/>
      </g>
     </g>
    </g>
    <g id="xtick_2">
     <g id="line2d_3">
      <path d="M 184.055937 305.037813 
L 184.055937 27.837812 
" clip-path="url(#p177802d48d)" style="fill: none; stroke-dasharray: 2.96,1.28; stroke-dashoffset: 0; stroke: #b0b0b0; stroke-opacity: 0.5; stroke-width: 0.8"/>
     </g>
     <g id="line2d_4">
      <g>
       <use xlink:href="#m91c34af3bd" x="184.055937" y="305.037813" style="stroke: #000000; stroke-width: 0.8"/>
      </g>
     </g>
     <g id="text_2">
      <!-- 0 -->
      <g transform="translate(180.874687 319.63625) scale(0.1 -0.1)">
       <defs>
        <path id="DejaVuSans-30" d="M 2034 4250 
Q 1547 4250 1301 3770 
Q 1056 3291 1056 2328 
Q 1056 1369 1301 889 
Q 1547 409 2034 409 
Q 2525 409 2770 889 
Q 3016 1369 3016 2328 
Q 3016 3291 2770 3770 
Q 2525 4250 2034 4250 
z
M 2034 4750 
Q 2819 4750 3233 4129 
Q 3647 3509 3647 2328 
Q 3647 1150 3233 529 
Q 2819 -91 2034 -91 
Q 1250 -91 836 529 
Q 422 1150 422 2328 
Q 422 3509 836 4129 
Q 1250 4750 2034 4750 
z
" transform="scale(0.015625)"/>
       </defs>
       <use xlink:href="#DejaVuSans-30"/>
      </g>
     </g>
    </g>
    <g id="xtick_3">
     <g id="line2d_5">
      <path d="M 310.874119 305.037813 
L 310.874119 27.837812 
" clip-path="url(#p177802d48d)" style="fill: none; stroke-dasharray: 2.96,1.28; stroke-dashoffset: 0; stroke: #b0b0b0; stroke-opacity: 0.5; stroke-width: 0.8"/>
     </g>
     <g id="line2d_6">
      <g>
       <use xlink:href="#m91c34af3bd" x="310.874119" y="305.037813" style="stroke: #000000; stroke-width: 0.8"/>
      </g>
     </g>
     <g id="text_3">
      <!-- 1 -->
      <g transform="translate(307.692869 319.63625) scale(0.1 -0.1)">
       <use xlink:href="#DejaVuSans-31"/>
      </g>
     </g>
    </g>
    <g id="text_4">
     <!-- x -->
     <g transform="translate(180.504687 334.834063) scale(0.12 -0.12)">
      <defs>
       <path id="DejaVuSans-78" d="M 3513 3500 
L 2247 1797 
L 3578 0 
L 2900 0 
L 1881 1375 
L 863 0 
L 184 0 
L 1544 1831 
L 300 3500 
L 978 3500 
L 1906 2253 
L 2834 3500 
L 3513 3500 
z
" transform="scale(0.015625)"/>
      </defs>
      <use xlink:href="#DejaVuSans-78"/>
     </g>
    </g>
   </g>
   <g id="matplotlib.axis_2">
    <g id="ytick_1">
     <g id="line2d_7">
      <path d="M 44.555937 293.255994 
L 323.555938 293.255994 
" clip-path="url(#p177802d48d)" style="fill: none; stroke-dasharray: 2.96,1.28; stroke-dashoffset: 0; stroke: #b0b0b0; stroke-opacity: 0.5; stroke-width: 0.8"/>
     </g>
     <g id="line2d_8">
      <defs>
       <path id="me3bc9ef66b" d="M 0 0 
L -3.5 0 
" style="stroke: #000000; stroke-width: 0.8"/>
      </defs>
      <g>
       <use xlink:href="#me3bc9ef66b" x="44.555937" y="293.255994" style="stroke: #000000; stroke-width: 0.8"/>
      </g>
     </g>
     <g id="text_5">
      <!-- −1 -->
      <g transform="translate(22.81375 297.055213) scale(0.1 -0.1)">
       <use xlink:href="#DejaVuSans-2212"/>
       <use xlink:href="#DejaVuSans-31" transform="translate(83.789062 0)"/>
      </g>
     </g>
    </g>
    <g id="ytick_2">
     <g id="line2d_9">
      <path d="M 44.555937 166.437813 
L 323.555938 166.437813 
" clip-path="url(#p177802d48d)" style="fill: none; stroke-dasharray: 2.96,1.28; stroke-dashoffset: 0; stroke: #b0b0b0; stroke-opacity: 0.5; stroke-width: 0.8"/>
     </g>
     <g id="line2d_10">
      <g>
       <use xlink:href="#me3bc9ef66b" x="44.555937" y="166.437813" style="stroke: #000000; stroke-width: 0.8"/>
      </g>
     </g>
     <g id="text_6">
      <!-- 0 -->
      <g transform="translate(31.193437 170.237031) scale(0.1 -0.1)">
       <use xlink:href="#DejaVuSans-30"/>
      </g>
     </g>
    </g>
    <g id="ytick_3">
     <g id="line2d_11">
      <path d="M 44.555937 39.619631 
L 323.555938 39.619631 
" clip-path="url(#p177802d48d)" style="fill: none; stroke-dasharray: 2.96,1.28; stroke-dashoffset: 0; stroke: #b0b0b0; stroke-opacity: 0.5; stroke-width: 0.8"/>
     </g>
     <g id="line2d_12">
      <g>
       <use xlink:href="#me3bc9ef66b" x="44.555937" y="39.619631" style="stroke: #000000; stroke-width: 0.8"/>
      </g>
     </g>
     <g id="text_7">
      <!-- 1 -->
      <g transform="translate(31.193437 43.418849) scale(0.1 -0.1)">
       <use xlink:href="#DejaVuSans-31"/>
      </g>
     </g>
    </g>
    <g id="text_8">
     <!-- y -->
     <g transform="translate(16.318125 169.989063) rotate(-90) scale(0.12 -0.12)">
      <defs>
       <path id="DejaVuSans-79" d="M 2059 -325 
Q 1816 -950 1584 -1140 
Q 1353 -1331 966 -1331 
L 506 -1331 
L 506 -850 
L 844 -850 
Q 1081 -850 1212 -737 
Q 1344 -625 1503 -206 
L 1606 56 
L 191 3500 
L 800 3500 
L 1894 763 
L 2988 3500 
L 3597 3500 
L 2059 -325 
z
" transform="scale(0.015625)"/>
      </defs>
      <use xlink:href="#DejaVuSans-79"/>
     </g>
    </g>
   </g>
   <g id="patch_3">
    <path d="M 44.555937 305.037813 
L 44.555937 27.837812 
" style="fill: none; stroke: #000000; stroke-width: 0.8; stroke-linejoin: miter; stroke-linecap: square"/>
   </g>
   <g id="patch_4">
    <path d="M 323.555938 305.037813 
L 323.555938 27.837812 
" style="fill: none; stroke: #000000; stroke-width: 0.8; stroke-linejoin: miter; stroke-linecap: square"/>
   </g>
   <g id="patch_5">
    <path d="M 44.555937 305.037813 
L 323.555938 305.037813 
" style="fill: none; stroke: #000000; stroke-width: 0.8; stroke-linejoin: miter; stroke-linecap: square"/>
   </g>
   <g id="patch_6">
    <path d="M 44.555937 27.837812 
L 323.555938 27.837812 
" style="fill: none; stroke: #000000; stroke-width: 0.8; stroke-linejoin: miter; stroke-linecap: square"/>
   </g>
   <g id="text_9">
    <!-- Pure Shear -->
    <g transform="translate(145.914687 17.837812) scale(0.14 -0.14)">
     <defs>
      <path id="DejaVuSans-50" d="M 1259 4147 
L 1259 2394 
L 2053 2394 
Q 2494 2394 2734 2622 
Q 2975 2850 2975 3272 
Q 2975 3691 2734 3919 
Q 2494 4147 2053 4147 
L 1259 4147 
z
M 628 4666 
L 2053 4666 
Q 2838 4666 3239 4311 
Q 3641 3956 3641 3272 
Q 3641 2581 3239 2228 
Q 2838 1875 2053 1875 
L 1259 1875 
L 1259 0 
L 628 0 
L 628 4666 
z
" transform="scale(0.015625)"/>
      <path id="DejaVuSans-75" d="M 544 1381 
L 544 3500 
L 1119 3500 
L 1119 1403 
Q 1119 906 1312 657 
Q 1506 409 1894 409 
Q 2359 409 2629 706 
Q 2900 1003 2900 1516 
L 2900 3500 
L 3475 3500 
L 3475 0 
L 2900 0 
L 2900 538 
Q 2691 219 2414 64 
Q 2138 -91 1772 -91 
Q 1169 -91 856 284 
Q 544 659 544 1381 
z
M 1991 3584 
L 1991 3584 
z
" transform="scale(0.015625)"/>
      <path id="DejaVuSans-72" d="M 2631 2963 
Q 2534 3019 2420 3045 
Q 2306 3072 2169 3072 
Q 1681 3072 1420 2755 
Q 1159 2438 1159 1844 
L 1159 0 
L 581 0 
L 581 3500 
L 1159 3500 
L 1159 2956 
Q 1341 3275 1631 3429 
Q 1922 3584 2338 3584 
Q 2397 3584 2469 3576 
Q 2541 3569 2628 3553 
L 2631 2963 
z
" transform="scale(0.015625)"/>
      <path id="DejaVuSans-65" d="M 3597 1894 
L 3597 1613 
L 953 1613 
Q 991 1019 1311 708 
Q 1631 397 2203 397 
Q 2534 397 2845 478 
Q 3156 559 3463 722 
L 3463 178 
Q 3153 47 2828 -22 
Q 2503 -91 2169 -91 
Q 1331 -91 842 396 
Q 353 884 353 1716 
Q 353 2575 817 3079 
Q 1281 3584 2069 3584 
Q 2775 3584 3186 3129 
Q 3597 2675 3597 1894 
z
M 3022 2063 
Q 3016 2534 2758 2815 
Q 2500 3097 2075 3097 
Q 1594 3097 1305 2825 
Q 1016 2553 972 2059 
L 3022 2063 
z
" transform="scale(0.015625)"/>
      <path id="DejaVuSans-20" transform="scale(0.015625)"/>
      <path id="DejaVuSans-53" d="M 3425 4513 
L 3425 3897 
Q 3066 4069 2747 4153 
Q 2428 4238 2131 4238 
Q 1616 4238 1336 4038 
Q 1056 3838 1056 3469 
Q 1056 3159 1242 3001 
Q 1428 2844 1947 2747 
L 2328 2669 
Q 3034 2534 3370 2195 
Q 3706 1856 3706 1288 
Q 3706 609 3251 259 
Q 2797 -91 1919 -91 
Q 1588 -91 1214 -16 
Q 841 59 441 206 
L 441 856 
Q 825 641 1194 531 
Q 1563 422 1919 422 
Q 2459 422 2753 634 
Q 3047 847 3047 1241 
Q 3047 1584 2836 1778 
Q 2625 1972 2144 2069 
L 1759 2144 
Q 1053 2284 737 2584 
Q 422 2884 422 3419 
Q 422 4038 858 4394 
Q 1294 4750 2059 4750 
Q 2388 4750 2728 4690 
Q 3069 4631 3425 4513 
z
" transform="scale(0.015625)"/>
      <path id="DejaVuSans-68" d="M 3513 2113 
L 3513 0 
L 2938 0 
L 2938 2094 
Q 2938 2591 2744 2837 
Q 2550 3084 2163 3084 
Q 1697 3084 1428 2787 
Q 1159 2491 1159 1978 
L 1159 0 
L 581 0 
L 581 4863 
L 1159 4863 
L 1159 2956 
Q 1366 3272 1645 3428 
Q 1925 3584 2291 3584 
Q 2894 3584 3203 3211 
Q 3513 2838 3513 2113 
z
" transform="scale(0.015625)"/>
      <path id="DejaVuSans-61" d="M 2194 1759 
Q 1497 1759 1228 1600 
Q 959 1441 959 1056 
Q 959 750 1161 570 
Q 1363 391 1709 391 
Q 2188 391 2477 730 
Q 2766 1069 2766 1631 
L 2766 1759 
L 2194 1759 
z
M 3341 1997 
L 3341 0 
L 2766 0 
L 2766 531 
Q 2569 213 2275 61 
Q 1981 -91 1556 -91 
Q 1019 -91 701 211 
Q 384 513 384 1019 
Q 384 1609 779 1909 
Q 1175 2209 1959 2209 
L 2766 2209 
L 2766 2266 
Q 2766 2663 2505 2880 
Q 2244 3097 1772 3097 
Q 1472 3097 1187 3025 
Q 903 2953 641 2809 
L 641 3341 
Q 956 3463 1253 3523 
Q 1550 3584 1831 3584 
Q 2591 3584 2966 3190 
Q 3341 2797 3341 1997 
z
" transform="scale(0.015625)"/>
     </defs>
     <use xlink:href="#DejaVuSans-50"/>
     <use xlink:href="#DejaVuSans-75" transform="translate(58.552734 0)"/>
     <use xlink:href="#DejaVuSans-72" transform="translate(121.931641 0)"/>
     <use xlink:href="#DejaVuSans-65" transform="translate(160.794922 0)"/>
     <use xlink:href="#DejaVuSans-20" transform="translate(222.318359 0)"/>
     <use xlink:href="#DejaVuSans-53" transform="translate(254.105469 0)"/>
     <use xlink:href="#DejaVuSans-68" transform="translate(317.582031 0)"/>
     <use xlink:href="#DejaVuSans-65" transform="translate(380.960938 0)"/>
     <use xlink:href="#DejaVuSans-61" transform="translate(442.484375 0)"/>
     <use xlink:href="#DejaVuSans-72" transform="translate(503.763672 0)"/>
    </g>
   </g>
  </g>
 </g>
 <defs>
  <clipPath id="p177802d48d">
   <rect x="44.555937" y="27.837812" width="279" height="277.2"/>
  </clipPath>
 </defs>
</svg>
