<?xml version="1.0" encoding="utf-8" standalone="no"?>
<!DOCTYPE svg PUBLIC "-//W3C//DTD SVG 1.1//EN"
  "http://www.w3.org/Graphics/SVG/1.1/DTD/svg11.dtd">
<svg xmlns:xlink="http://www.w3.org/1999/xlink" width="330.755937pt" height="344.529688pt" viewBox="0 0 330.755937 344.529688" xmlns="http://www.w3.org/2000/svg" version="1.1">
 <metadata>
  <rdf:RDF xmlns:dc="http://purl.org/dc/elements/1.1/" xmlns:cc="http://creativecommons.org/ns#" xmlns:rdf="http://www.w3.org/1999/02/22-rdf-syntax-ns#">
   <cc:Work>
    <dc:type rdf:resource="http://purl.org/dc/dcmitype/StillImage"/>
    <dc:date>2025-02-09T20:55:44.251318</dc:date>
    <dc:format>image/svg+xml</dc:format>
    <dc:creator>
     <cc:Agent>
      <dc:title>Matplotlib v3.10.0, https://matplotlib.org/</dc:title>
     </cc:Agent>
    </dc:creator>
   </cc:Work>
  </rdf:RDF>
 </metadata>
 <defs>
  <style type="text/css">*{stroke-linejoin: round; stroke-linecap: butt}</style>
 </defs>
 <g id="figure_1">
  <g id="patch_1">
   <path d="M -0 344.529688 
L 330.755937 344.529688 
L 330.755937 0 
L -0 0 
z
" style="fill: #ffffff"/>
  </g>
  <g id="axes_1">
   <g id="patch_2">
    <path d="M 44.555937 305.037813 
L 323.555938 305.037813 
L 323.555938 27.837812 
L 44.555937 27.837812 
z
" style="fill: #ffffff"/>
   </g>
   <g id="Quiver_1">
    <path d="M 57.237756 294.302244 
L 39.529006 294.302244 
L 40.575256 296.394744 
L 30.112756 293.255994 
L 40.575256 290.117244 
L 39.529006 292.209744 
L 57.237756 292.209744 
L 57.237756 294.302244 
" clip-path="url(#p8321db68e5)" style="fill: #0000ff"/>
    <path d="M 93.471522 294.302244 
L 75.762772 294.302244 
L 76.809022 296.394744 
L 66.346522 293.255994 
L 76.809022 290.117244 
L 75.762772 292.209744 
L 93.471522 292.209744 
L 93.471522 294.302244 
" clip-path="url(#p8321db68e5)" style="fill: #0000ff"/>
    <path d="M 129.705288 294.302244 
L 111.996538 294.302244 
L 113.042788 296.394744 
L 102.580288 293.255994 
L 113.042788 290.117244 
L 111.996538 292.209744 
L 129.705288 292.209744 
L 129.705288 294.302244 
" clip-path="url(#p8321db68e5)" style="fill: #0000ff"/>
    <path d="M 165.939054 294.302244 
L 148.230304 294.302244 
L 149.276554 296.394744 
L 138.814054 293.255994 
L 149.276554 290.117244 
L 148.230304 292.209744 
L 165.939054 292.209744 
L 165.939054 294.302244 
" clip-path="url(#p8321db68e5)" style="fill: #0000ff"/>
    <path d="M 202.172821 294.302244 
L 184.464071 294.302244 
L 185.510321 296.394744 
L 175.047821 293.255994 
L 185.510321 290.117244 
L 184.464071 292.209744 
L 202.172821 292.209744 
L 202.172821 294.302244 
" clip-path="url(#p8321db68e5)" style="fill: #0000ff"/>
    <path d="M 238.406587 294.302244 
L 220.697837 294.302244 
L 221.744087 296.394744 
L 211.281587 293.255994 
L 221.744087 290.117244 
L 220.697837 292.209744 
L 238.406587 292.209744 
L 238.406587 294.302244 
" clip-path="url(#p8321db68e5)" style="fill: #0000ff"/>
    <path d="M 274.640353 294.302244 
L 256.931603 294.302244 
L 257.977853 296.394744 
L 247.515353 293.255994 
L 257.977853 290.117244 
L 256.931603 292.209744 
L 274.640353 292.209744 
L 274.640353 294.302244 
" clip-path="url(#p8321db68e5)" style="fill: #0000ff"/>
    <path d="M 310.874119 294.302244 
L 293.165369 294.302244 
L 294.211619 296.394744 
L 283.749119 293.255994 
L 294.211619 290.117244 
L 293.165369 292.209744 
L 310.874119 292.209744 
L 310.874119 294.302244 
" clip-path="url(#p8321db68e5)" style="fill: #0000ff"/>
    <path d="M 57.237756 258.068478 
L 47.279006 258.068478 
L 48.325256 260.160978 
L 37.862756 257.022228 
L 48.325256 253.883478 
L 47.279006 255.975978 
L 57.237756 255.975978 
L 57.237756 258.068478 
" clip-path="url(#p8321db68e5)" style="fill: #0000ff"/>
    <path d="M 93.471522 258.068478 
L 83.512772 258.068478 
L 84.559022 260.160978 
L 74.096522 257.022228 
L 84.559022 253.883478 
L 83.512772 255.975978 
L 93.471522 255.975978 
L 93.471522 258.068478 
" clip-path="url(#p8321db68e5)" style="fill: #0000ff"/>
    <path d="M 129.705288 258.068478 
L 119.746538 258.068478 
L 120.792788 260.160978 
L 110.330288 257.022228 
L 120.792788 253.883478 
L 119.746538 255.975978 
L 129.705288 255.975978 
L 129.705288 258.068478 
" clip-path="url(#p8321db68e5)" style="fill: #0000ff"/>
    <path d="M 165.939054 258.068478 
L 155.980304 258.068478 
L 157.026554 260.160978 
L 146.564054 257.022228 
L 157.026554 253.883478 
L 155.980304 255.975978 
L 165.939054 255.975978 
L 165.939054 258.068478 
" clip-path="url(#p8321db68e5)" style="fill: #0000ff"/>
    <path d="M 202.172821 258.068478 
L 192.214071 258.068478 
L 193.260321 260.160978 
L 182.797821 257.022228 
L 193.260321 253.883478 
L 192.214071 255.975978 
L 202.172821 255.975978 
L 202.172821 258.068478 
" clip-path="url(#p8321db68e5)" style="fill: #0000ff"/>
    <path d="M 238.406587 258.068478 
L 228.447837 258.068478 
L 229.494087 260.160978 
L 219.031587 257.022228 
L 229.494087 253.883478 
L 228.447837 255.975978 
L 238.406587 255.975978 
L 238.406587 258.068478 
" clip-path="url(#p8321db68e5)" style="fill: #0000ff"/>
    <path d="M 274.640353 258.068478 
L 264.681603 258.068478 
L 265.727853 260.160978 
L 255.265353 257.022228 
L 265.727853 253.883478 
L 264.681603 255.975978 
L 274.640353 255.975978 
L 274.640353 258.068478 
" clip-path="url(#p8321db68e5)" style="fill: #0000ff"/>
    <path d="M 310.874119 258.068478 
L 300.915369 258.068478 
L 301.961619 260.160978 
L 291.499119 257.022228 
L 301.961619 253.883478 
L 300.915369 255.975978 
L 310.874119 255.975978 
L 310.874119 258.068478 
" clip-path="url(#p8321db68e5)" style="fill: #0000ff"/>
    <path d="M 57.237756 221.834712 
L 55.029006 221.834712 
L 56.075256 223.927212 
L 45.612756 220.788462 
L 56.075256 217.649712 
L 55.029006 219.742212 
L 57.237756 219.742212 
L 57.237756 221.834712 
" clip-path="url(#p8321db68e5)" style="fill: #0000ff"/>
    <path d="M 93.471522 221.834712 
L 91.262772 221.834712 
L 92.309022 223.927212 
L 81.846522 220.788462 
L 92.309022 217.649712 
L 91.262772 219.742212 
L 93.471522 219.742212 
L 93.471522 221.834712 
" clip-path="url(#p8321db68e5)" style="fill: #0000ff"/>
    <path d="M 129.705288 221.834712 
L 127.496538 221.834712 
L 128.542788 223.927212 
L 118.080288 220.788462 
L 128.542788 217.649712 
L 127.496538 219.742212 
L 129.705288 219.742212 
L 129.705288 221.834712 
" clip-path="url(#p8321db68e5)" style="fill: #0000ff"/>
    <path d="M 165.939054 221.834712 
L 163.730304 221.834712 
L 164.776554 223.927212 
L 154.314054 220.788462 
L 164.776554 217.649712 
L 163.730304 219.742212 
L 165.939054 219.742212 
L 165.939054 221.834712 
" clip-path="url(#p8321db68e5)" style="fill: #0000ff"/>
    <path d="M 202.172821 221.834712 
L 199.964071 221.834712 
L 201.010321 223.927212 
L 190.547821 220.788462 
L 201.010321 217.649712 
L 199.964071 219.742212 
L 202.172821 219.742212 
L 202.172821 221.834712 
" clip-path="url(#p8321db68e5)" style="fill: #0000ff"/>
    <path d="M 238.406587 221.834712 
L 236.197837 221.834712 
L 237.244087 223.927212 
L 226.781587 220.788462 
L 237.244087 217.649712 
L 236.197837 219.742212 
L 238.406587 219.742212 
L 238.406587 221.834712 
" clip-path="url(#p8321db68e5)" style="fill: #0000ff"/>
    <path d="M 274.640353 221.834712 
L 272.431603 221.834712 
L 273.477853 223.927212 
L 263.015353 220.788462 
L 273.477853 217.649712 
L 272.431603 219.742212 
L 274.640353 219.742212 
L 274.640353 221.834712 
" clip-path="url(#p8321db68e5)" style="fill: #0000ff"/>
    <path d="M 310.874119 221.834712 
L 308.665369 221.834712 
L 309.711619 223.927212 
L 299.249119 220.788462 
L 309.711619 217.649712 
L 308.665369 219.742212 
L 310.874119 219.742212 
L 310.874119 221.834712 
" clip-path="url(#p8321db68e5)" style="fill: #0000ff"/>
    <path d="M 57.237756 184.942196 
L 56.850256 184.942196 
L 57.237756 185.717196 
L 53.362756 184.554696 
L 57.237756 183.392196 
L 56.850256 184.167196 
L 57.237756 184.167196 
L 57.237756 184.942196 
" clip-path="url(#p8321db68e5)" style="fill: #0000ff"/>
    <path d="M 93.471522 184.942196 
L 93.084022 184.942196 
L 93.471522 185.717196 
L 89.596522 184.554696 
L 93.471522 183.392196 
L 93.084022 184.167196 
L 93.471522 184.167196 
L 93.471522 184.942196 
" clip-path="url(#p8321db68e5)" style="fill: #0000ff"/>
    <path d="M 129.705288 184.942196 
L 129.317788 184.942196 
L 129.705288 185.717196 
L 125.830288 184.554696 
L 129.705288 183.392196 
L 129.317788 184.167196 
L 129.705288 184.167196 
L 129.705288 184.942196 
" clip-path="url(#p8321db68e5)" style="fill: #0000ff"/>
    <path d="M 165.939054 184.942196 
L 165.551554 184.942196 
L 165.939054 185.717196 
L 162.064054 184.554696 
L 165.939054 183.392196 
L 165.551554 184.167196 
L 165.939054 184.167196 
L 165.939054 184.942196 
" clip-path="url(#p8321db68e5)" style="fill: #0000ff"/>
    <path d="M 202.172821 184.942196 
L 201.785321 184.942196 
L 202.172821 185.717196 
L 198.297821 184.554696 
L 202.172821 183.392196 
L 201.785321 184.167196 
L 202.172821 184.167196 
L 202.172821 184.942196 
" clip-path="url(#p8321db68e5)" style="fill: #0000ff"/>
    <path d="M 238.406587 184.942196 
L 238.019087 184.942196 
L 238.406587 185.717196 
L 234.531587 184.554696 
L 238.406587 183.392196 
L 238.019087 184.167196 
L 238.406587 184.167196 
L 238.406587 184.942196 
" clip-path="url(#p8321db68e5)" style="fill: #0000ff"/>
    <path d="M 274.640353 184.942196 
L 274.252853 184.942196 
L 274.640353 185.717196 
L 270.765353 184.554696 
L 274.640353 183.392196 
L 274.252853 184.167196 
L 274.640353 184.167196 
L 274.640353 184.942196 
" clip-path="url(#p8321db68e5)" style="fill: #0000ff"/>
    <path d="M 310.874119 184.942196 
L 310.486619 184.942196 
L 310.874119 185.717196 
L 306.999119 184.554696 
L 310.874119 183.392196 
L 310.486619 184.167196 
L 310.874119 184.167196 
L 310.874119 184.942196 
" clip-path="url(#p8321db68e5)" style="fill: #0000ff"/>
    <path d="M 57.237756 147.933429 
L 57.625256 147.933429 
L 57.237756 147.158429 
L 61.112756 148.320929 
L 57.237756 149.483429 
L 57.625256 148.708429 
L 57.237756 148.708429 
L 57.237756 147.933429 
" clip-path="url(#p8321db68e5)" style="fill: #0000ff"/>
    <path d="M 93.471522 147.933429 
L 93.859022 147.933429 
L 93.471522 147.158429 
L 97.346522 148.320929 
L 93.471522 149.483429 
L 93.859022 148.708429 
L 93.471522 148.708429 
L 93.471522 147.933429 
" clip-path="url(#p8321db68e5)" style="fill: #0000ff"/>
    <path d="M 129.705288 147.933429 
L 130.092788 147.933429 
L 129.705288 147.158429 
L 133.580288 148.320929 
L 129.705288 149.483429 
L 130.092788 148.708429 
L 129.705288 148.708429 
L 129.705288 147.933429 
" clip-path="url(#p8321db68e5)" style="fill: #0000ff"/>
    <path d="M 165.939054 147.933429 
L 166.326554 147.933429 
L 165.939054 147.158429 
L 169.814054 148.320929 
L 165.939054 149.483429 
L 166.326554 148.708429 
L 165.939054 148.708429 
L 165.939054 147.933429 
" clip-path="url(#p8321db68e5)" style="fill: #0000ff"/>
    <path d="M 202.172821 147.933429 
L 202.560321 147.933429 
L 202.172821 147.158429 
L 206.047821 148.320929 
L 202.172821 149.483429 
L 202.560321 148.708429 
L 202.172821 148.708429 
L 202.172821 147.933429 
" clip-path="url(#p8321db68e5)" style="fill: #0000ff"/>
    <path d="M 238.406587 147.933429 
L 238.794087 147.933429 
L 238.406587 147.158429 
L 242.281587 148.320929 
L 238.406587 149.483429 
L 238.794087 148.708429 
L 238.406587 148.708429 
L 238.406587 147.933429 
" clip-path="url(#p8321db68e5)" style="fill: #0000ff"/>
    <path d="M 274.640353 147.933429 
L 275.027853 147.933429 
L 274.640353 147.158429 
L 278.515353 148.320929 
L 274.640353 149.483429 
L 275.027853 148.708429 
L 274.640353 148.708429 
L 274.640353 147.933429 
" clip-path="url(#p8321db68e5)" style="fill: #0000ff"/>
    <path d="M 310.874119 147.933429 
L 311.261619 147.933429 
L 310.874119 147.158429 
L 314.749119 148.320929 
L 310.874119 149.483429 
L 311.261619 148.708429 
L 310.874119 148.708429 
L 310.874119 147.933429 
" clip-path="url(#p8321db68e5)" style="fill: #0000ff"/>
    <path d="M 57.237756 111.040913 
L 59.446506 111.040913 
L 58.400256 108.948413 
L 68.862756 112.087163 
L 58.400256 115.225913 
L 59.446506 113.133413 
L 57.237756 113.133413 
L 57.237756 111.040913 
" clip-path="url(#p8321db68e5)" style="fill: #0000ff"/>
    <path d="M 93.471522 111.040913 
L 95.680272 111.040913 
L 94.634022 108.948413 
L 105.096522 112.087163 
L 94.634022 115.225913 
L 95.680272 113.133413 
L 93.471522 113.133413 
L 93.471522 111.040913 
" clip-path="url(#p8321db68e5)" style="fill: #0000ff"/>
    <path d="M 129.705288 111.040913 
L 131.914038 111.040913 
L 130.867788 108.948413 
L 141.330288 112.087163 
L 130.867788 115.225913 
L 131.914038 113.133413 
L 129.705288 113.133413 
L 129.705288 111.040913 
" clip-path="url(#p8321db68e5)" style="fill: #0000ff"/>
    <path d="M 165.939054 111.040913 
L 168.147804 111.040913 
L 167.101554 108.948413 
L 177.564054 112.087163 
L 167.101554 115.225913 
L 168.147804 113.133413 
L 165.939054 113.133413 
L 165.939054 111.040913 
" clip-path="url(#p8321db68e5)" style="fill: #0000ff"/>
    <path d="M 202.172821 111.040913 
L 204.381571 111.040913 
L 203.335321 108.948413 
L 213.797821 112.087163 
L 203.335321 115.225913 
L 204.381571 113.133413 
L 202.172821 113.133413 
L 202.172821 111.040913 
" clip-path="url(#p8321db68e5)" style="fill: #0000ff"/>
    <path d="M 238.406587 111.040913 
L 240.615337 111.040913 
L 239.569087 108.948413 
L 250.031587 112.087163 
L 239.569087 115.225913 
L 240.615337 113.133413 
L 238.406587 113.133413 
L 238.406587 111.040913 
" clip-path="url(#p8321db68e5)" style="fill: #0000ff"/>
    <path d="M 274.640353 111.040913 
L 276.849103 111.040913 
L 275.802853 108.948413 
L 286.265353 112.087163 
L 275.802853 115.225913 
L 276.849103 113.133413 
L 274.640353 113.133413 
L 274.640353 111.040913 
" clip-path="url(#p8321db68e5)" style="fill: #0000ff"/>
    <path d="M 310.874119 111.040913 
L 313.082869 111.040913 
L 312.036619 108.948413 
L 322.499119 112.087163 
L 312.036619 115.225913 
L 313.082869 113.133413 
L 310.874119 113.133413 
L 310.874119 111.040913 
" clip-path="url(#p8321db68e5)" style="fill: #0000ff"/>
    <path d="M 57.237756 74.807147 
L 67.196506 74.807147 
L 66.150256 72.714647 
L 76.612756 75.853397 
L 66.150256 78.992147 
L 67.196506 76.899647 
L 57.237756 76.899647 
L 57.237756 74.807147 
" clip-path="url(#p8321db68e5)" style="fill: #0000ff"/>
    <path d="M 93.471522 74.807147 
L 103.430272 74.807147 
L 102.384022 72.714647 
L 112.846522 75.853397 
L 102.384022 78.992147 
L 103.430272 76.899647 
L 93.471522 76.899647 
L 93.471522 74.807147 
" clip-path="url(#p8321db68e5)" style="fill: #0000ff"/>
    <path d="M 129.705288 74.807147 
L 139.664038 74.807147 
L 138.617788 72.714647 
L 149.080288 75.853397 
L 138.617788 78.992147 
L 139.664038 76.899647 
L 129.705288 76.899647 
L 129.705288 74.807147 
" clip-path="url(#p8321db68e5)" style="fill: #0000ff"/>
    <path d="M 165.939054 74.807147 
L 175.897804 74.807147 
L 174.851554 72.714647 
L 185.314054 75.853397 
L 174.851554 78.992147 
L 175.897804 76.899647 
L 165.939054 76.899647 
L 165.939054 74.807147 
" clip-path="url(#p8321db68e5)" style="fill: #0000ff"/>
    <path d="M 202.172821 74.807147 
L 212.131571 74.807147 
L 211.085321 72.714647 
L 221.547821 75.853397 
L 211.085321 78.992147 
L 212.131571 76.899647 
L 202.172821 76.899647 
L 202.172821 74.807147 
" clip-path="url(#p8321db68e5)" style="fill: #0000ff"/>
    <path d="M 238.406587 74.807147 
L 248.365337 74.807147 
L 247.319087 72.714647 
L 257.781587 75.853397 
L 247.319087 78.992147 
L 248.365337 76.899647 
L 238.406587 76.899647 
L 238.406587 74.807147 
" clip-path="url(#p8321db68e5)" style="fill: #0000ff"/>
    <path d="M 274.640353 74.807147 
L 284.599103 74.807147 
L 283.552853 72.714647 
L 294.015353 75.853397 
L 283.552853 78.992147 
L 284.599103 76.899647 
L 274.640353 76.899647 
L 274.640353 74.807147 
" clip-path="url(#p8321db68e5)" style="fill: #0000ff"/>
    <path d="M 310.874119 74.807147 
L 320.832869 74.807147 
L 319.786619 72.714647 
L 330.249119 75.853397 
L 319.786619 78.992147 
L 320.832869 76.899647 
L 310.874119 76.899647 
L 310.874119 74.807147 
" clip-path="url(#p8321db68e5)" style="fill: #0000ff"/>
    <path d="M 57.237756 38.573381 
L 74.946506 38.573381 
L 73.900256 36.480881 
L 84.362756 39.619631 
L 73.900256 42.758381 
L 74.946506 40.665881 
L 57.237756 40.665881 
L 57.237756 38.573381 
" clip-path="url(#p8321db68e5)" style="fill: #0000ff"/>
    <path d="M 93.471522 38.573381 
L 111.180272 38.573381 
L 110.134022 36.480881 
L 120.596522 39.619631 
L 110.134022 42.758381 
L 111.180272 40.665881 
L 93.471522 40.665881 
L 93.471522 38.573381 
" clip-path="url(#p8321db68e5)" style="fill: #0000ff"/>
    <path d="M 129.705288 38.573381 
L 147.414038 38.573381 
L 146.367788 36.480881 
L 156.830288 39.619631 
L 146.367788 42.758381 
L 147.414038 40.665881 
L 129.705288 40.665881 
L 129.705288 38.573381 
" clip-path="url(#p8321db68e5)" style="fill: #0000ff"/>
    <path d="M 165.939054 38.573381 
L 183.647804 38.573381 
L 182.601554 36.480881 
L 193.064054 39.619631 
L 182.601554 42.758381 
L 183.647804 40.665881 
L 165.939054 40.665881 
L 165.939054 38.573381 
" clip-path="url(#p8321db68e5)" style="fill: #0000ff"/>
    <path d="M 202.172821 38.573381 
L 219.881571 38.573381 
L 218.835321 36.480881 
L 229.297821 39.619631 
L 218.835321 42.758381 
L 219.881571 40.665881 
L 202.172821 40.665881 
L 202.172821 38.573381 
" clip-path="url(#p8321db68e5)" style="fill: #0000ff"/>
    <path d="M 238.406587 38.573381 
L 256.115337 38.573381 
L 255.069087 36.480881 
L 265.531587 39.619631 
L 255.069087 42.758381 
L 256.115337 40.665881 
L 238.406587 40.665881 
L 238.406587 38.573381 
" clip-path="url(#p8321db68e5)" style="fill: #0000ff"/>
    <path d="M 274.640353 38.573381 
L 292.349103 38.573381 
L 291.302853 36.480881 
L 301.765353 39.619631 
L 291.302853 42.758381 
L 292.349103 40.665881 
L 274.640353 40.665881 
L 274.640353 38.573381 
" clip-path="url(#p8321db68e5)" style="fill: #0000ff"/>
    <path d="M 310.874119 38.573381 
L 328.582869 38.573381 
L 327.536619 36.480881 
L 337.999119 39.619631 
L 327.536619 42.758381 
L 328.582869 40.665881 
L 310.874119 40.665881 
L 310.874119 38.573381 
" clip-path="url(#p8321db68e5)" style="fill: #0000ff"/>
   </g>
   <g id="matplotlib.axis_1">
    <g id="xtick_1">
     <g id="line2d_1">
      <path d="M 57.237756 305.037813 
L 57.237756 27.837812 
" clip-path="url(#p8321db68e5)" style="fill: none; stroke-dasharray: 2.96,1.28; stroke-dashoffset: 0; stroke: #b0b0b0; stroke-opacity: 0.5; stroke-width: 0.8"/>
     </g>
     <g id="line2d_2">
      <defs>
       <path id="m1e733dbfac" d="M 0 0 
L 0 3.5 
" style="stroke: #000000; stroke-width: 0.8"/>
      </defs>
      <g>
       <use xlink:href="#m1e733dbfac" x="57.237756" y="305.037813" style="stroke: #000000; stroke-width: 0.8"/>
      </g>
     </g>
     <g id="text_1">
      <!-- −1 -->
      <g transform="translate(49.866662 319.63625) scale(0.1 -0.1)">
       <defs>
        <path id="DejaVuSans-2212" d="M 678 2272 
L 4684 2272 
L 4684 1741 
L 678 1741 
L 678 2272 
z
" transform="scale(0.015625)"/>
        <path id="DejaVuSans-31" d="M 794 531 
L 1825 531 
L 1825 4091 
L 703 3866 
L 703 4441 
L 1819 4666 
L 2450 4666 
L 2450 531 
L 3481 531 
L 3481 0 
L 794 0 
L 794 531 
z
" transform="scale(0.015625)"/>
       </defs>
       <use xlink:href="#DejaVuSans-2212"/>
       <use xlink:href="#DejaVuSans-31" transform="translate(83.789062 0)"/>
      </g>
     </g>
    </g>
    <g id="xtick_2">
     <g id="line2d_3">
      <path d="M 184.055937 305.037813 
L 184.055937 27.837812 
" clip-path="url(#p8321db68e5)" style="fill: none; stroke-dasharray: 2.96,1.28; stroke-dashoffset: 0; stroke: #b0b0b0; stroke-opacity: 0.5; stroke-width: 0.8"/>
     </g>
     <g id="line2d_4">
      <g>
       <use xlink:href="#m1e733dbfac" x="184.055937" y="305.037813" style="stroke: #000000; stroke-width: 0.8"/>
      </g>
     </g>
     <g id="text_2">
      <!-- 0 -->
      <g transform="translate(180.874687 319.63625) scale(0.1 -0.1)">
       <defs>
        <path id="DejaVuSans-30" d="M 2034 4250 
Q 1547 4250 1301 3770 
Q 1056 3291 1056 2328 
Q 1056 1369 1301 889 
Q 1547 409 2034 409 
Q 2525 409 2770 889 
Q 3016 1369 3016 2328 
Q 3016 3291 2770 3770 
Q 2525 4250 2034 4250 
z
M 2034 4750 
Q 2819 4750 3233 4129 
Q 3647 3509 3647 2328 
Q 3647 1150 3233 529 
Q 2819 -91 2034 -91 
Q 1250 -91 836 529 
Q 422 1150 422 2328 
Q 422 3509 836 4129 
Q 1250 4750 2034 4750 
z
" transform="scale(0.015625)"/>
       </defs>
       <use xlink:href="#DejaVuSans-30"/>
      </g>
     </g>
    </g>
    <g id="xtick_3">
     <g id="line2d_5">
      <path d="M 310.874119 305.037813 
L 310.874119 27.837812 
" clip-path="url(#p8321db68e5)" style="fill: none; stroke-dasharray: 2.96,1.28; stroke-dashoffset: 0; stroke: #b0b0b0; stroke-opacity: 0.5; stroke-width: 0.8"/>
     </g>
     <g id="line2d_6">
      <g>
       <use xlink:href="#m1e733dbfac" x="310.874119" y="305.037813" style="stroke: #000000; stroke-width: 0.8"/>
      </g>
     </g>
     <g id="text_3">
      <!-- 1 -->
      <g transform="translate(307.692869 319.63625) scale(0.1 -0.1)">
       <use xlink:href="#DejaVuSans-31"/>
      </g>
     </g>
    </g>
    <g id="text_4">
     <!-- x -->
     <g transform="translate(180.504687 334.834063) scale(0.12 -0.12)">
      <defs>
       <path id="DejaVuSans-78" d="M 3513 3500 
L 2247 1797 
L 3578 0 
L 2900 0 
L 1881 1375 
L 863 0 
L 184 0 
L 1544 1831 
L 300 3500 
L 978 3500 
L 1906 2253 
L 2834 3500 
L 3513 3500 
z
" transform="scale(0.015625)"/>
      </defs>
      <use xlink:href="#DejaVuSans-78"/>
     </g>
    </g>
   </g>
   <g id="matplotlib.axis_2">
    <g id="ytick_1">
     <g id="line2d_7">
      <path d="M 44.555937 293.255994 
L 323.555938 293.255994 
" clip-path="url(#p8321db68e5)" style="fill: none; stroke-dasharray: 2.96,1.28; stroke-dashoffset: 0; stroke: #b0b0b0; stroke-opacity: 0.5; stroke-width: 0.8"/>
     </g>
     <g id="line2d_8">
      <defs>
       <path id="md0b9688b8d" d="M 0 0 
L -3.5 0 
" style="stroke: #000000; stroke-width: 0.8"/>
      </defs>
      <g>
       <use xlink:href="#md0b9688b8d" x="44.555937" y="293.255994" style="stroke: #000000; stroke-width: 0.8"/>
      </g>
     </g>
     <g id="text_5">
      <!-- −1 -->
      <g transform="translate(22.81375 297.055213) scale(0.1 -0.1)">
       <use xlink:href="#DejaVuSans-2212"/>
       <use xlink:href="#DejaVuSans-31" transform="translate(83.789062 0)"/>
      </g>
     </g>
    </g>
    <g id="ytick_2">
     <g id="line2d_9">
      <path d="M 44.555937 166.437813 
L 323.555938 166.437813 
" clip-path="url(#p8321db68e5)" style="fill: none; stroke-dasharray: 2.96,1.28; stroke-dashoffset: 0; stroke: #b0b0b0; stroke-opacity: 0.5; stroke-width: 0.8"/>
     </g>
     <g id="line2d_10">
      <g>
       <use xlink:href="#md0b9688b8d" x="44.555937" y="166.437813" style="stroke: #000000; stroke-width: 0.8"/>
      </g>
     </g>
     <g id="text_6">
      <!-- 0 -->
      <g transform="translate(31.193437 170.237031) scale(0.1 -0.1)">
       <use xlink:href="#DejaVuSans-30"/>
      </g>
     </g>
    </g>
    <g id="ytick_3">
     <g id="line2d_11">
      <path d="M 44.555937 39.619631 
L 323.555938 39.619631 
" clip-path="url(#p8321db68e5)" style="fill: none; stroke-dasharray: 2.96,1.28; stroke-dashoffset: 0; stroke: #b0b0b0; stroke-opacity: 0.5; stroke-width: 0.8"/>
     </g>
     <g id="line2d_12">
      <g>
       <use xlink:href="#md0b9688b8d" x="44.555937" y="39.619631" style="stroke: #000000; stroke-width: 0.8"/>
      </g>
     </g>
     <g id="text_7">
      <!-- 1 -->
      <g transform="translate(31.193437 43.418849) scale(0.1 -0.1)">
       <use xlink:href="#DejaVuSans-31"/>
      </g>
     </g>
    </g>
    <g id="text_8">
     <!-- y -->
     <g transform="translate(16.318125 169.989063) rotate(-90) scale(0.12 -0.12)">
      <defs>
       <path id="DejaVuSans-79" d="M 2059 -325 
Q 1816 -950 1584 -1140 
Q 1353 -1331 966 -1331 
L 506 -1331 
L 506 -850 
L 844 -850 
Q 1081 -850 1212 -737 
Q 1344 -625 1503 -206 
L 1606 56 
L 191 3500 
L 800 3500 
L 1894 763 
L 2988 3500 
L 3597 3500 
L 2059 -325 
z
" transform="scale(0.015625)"/>
      </defs>
      <use xlink:href="#DejaVuSans-79"/>
     </g>
    </g>
   </g>
   <g id="patch_3">
    <path d="M 44.555937 305.037813 
L 44.555937 27.837812 
" style="fill: none; stroke: #000000; stroke-width: 0.8; stroke-linejoin: miter; stroke-linecap: square"/>
   </g>
   <g id="patch_4">
    <path d="M 323.555938 305.037813 
L 323.555938 27.837812 
" style="fill: none; stroke: #000000; stroke-width: 0.8; stroke-linejoin: miter; stroke-linecap: square"/>
   </g>
   <g id="patch_5">
    <path d="M 44.555937 305.037813 
L 323.555938 305.037813 
" style="fill: none; stroke: #000000; stroke-width: 0.8; stroke-linejoin: miter; stroke-linecap: square"/>
   </g>
   <g id="patch_6">
    <path d="M 44.555937 27.837812 
L 323.555938 27.837812 
" style="fill: none; stroke: #000000; stroke-width: 0.8; stroke-linejoin: miter; stroke-linecap: square"/>
   </g>
   <g id="text_9">
    <!-- Traditional Shear -->
    <g transform="translate(125.035 17.837812) scale(0.14 -0.14)">
     <defs>
      <path id="DejaVuSans-54" d="M -19 4666 
L 3928 4666 
L 3928 4134 
L 2272 4134 
L 2272 0 
L 1638 0 
L 1638 4134 
L -19 4134 
L -19 4666 
z
" transform="scale(0.015625)"/>
      <path id="DejaVuSans-72" d="M 2631 2963 
Q 2534 3019 2420 3045 
Q 2306 3072 2169 3072 
Q 1681 3072 1420 2755 
Q 1159 2438 1159 1844 
L 1159 0 
L 581 0 
L 581 3500 
L 1159 3500 
L 1159 2956 
Q 1341 3275 1631 3429 
Q 1922 3584 2338 3584 
Q 2397 3584 2469 3576 
Q 2541 3569 2628 3553 
L 2631 2963 
z
" transform="scale(0.015625)"/>
      <path id="DejaVuSans-61" d="M 2194 1759 
Q 1497 1759 1228 1600 
Q 959 1441 959 1056 
Q 959 750 1161 570 
Q 1363 391 1709 391 
Q 2188 391 2477 730 
Q 2766 1069 2766 1631 
L 2766 1759 
L 2194 1759 
z
M 3341 1997 
L 3341 0 
L 2766 0 
L 2766 531 
Q 2569 213 2275 61 
Q 1981 -91 1556 -91 
Q 1019 -91 701 211 
Q 384 513 384 1019 
Q 384 1609 779 1909 
Q 1175 2209 1959 2209 
L 2766 2209 
L 2766 2266 
Q 2766 2663 2505 2880 
Q 2244 3097 1772 3097 
Q 1472 3097 1187 3025 
Q 903 2953 641 2809 
L 641 3341 
Q 956 3463 1253 3523 
Q 1550 3584 1831 3584 
Q 2591 3584 2966 3190 
Q 3341 2797 3341 1997 
z
" transform="scale(0.015625)"/>
      <path id="DejaVuSans-64" d="M 2906 2969 
L 2906 4863 
L 3481 4863 
L 3481 0 
L 2906 0 
L 2906 525 
Q 2725 213 2448 61 
Q 2172 -91 1784 -91 
Q 1150 -91 751 415 
Q 353 922 353 1747 
Q 353 2572 751 3078 
Q 1150 3584 1784 3584 
Q 2172 3584 2448 3432 
Q 2725 3281 2906 2969 
z
M 947 1747 
Q 947 1113 1208 752 
Q 1469 391 1925 391 
Q 2381 391 2643 752 
Q 2906 1113 2906 1747 
Q 2906 2381 2643 2742 
Q 2381 3103 1925 3103 
Q 1469 3103 1208 2742 
Q 947 2381 947 1747 
z
" transform="scale(0.015625)"/>
      <path id="DejaVuSans-69" d="M 603 3500 
L 1178 3500 
L 1178 0 
L 603 0 
L 603 3500 
z
M 603 4863 
L 1178 4863 
L 1178 4134 
L 603 4134 
L 603 4863 
z
" transform="scale(0.015625)"/>
      <path id="DejaVuSans-74" d="M 1172 4494 
L 1172 3500 
L 2356 3500 
L 2356 3053 
L 1172 3053 
L 1172 1153 
Q 1172 725 1289 603 
Q 1406 481 1766 481 
L 2356 481 
L 2356 0 
L 1766 0 
Q 1100 0 847 248 
Q 594 497 594 1153 
L 594 3053 
L 172 3053 
L 172 3500 
L 594 3500 
L 594 4494 
L 1172 4494 
z
" transform="scale(0.015625)"/>
      <path id="DejaVuSans-6f" d="M 1959 3097 
Q 1497 3097 1228 2736 
Q 959 2375 959 1747 
Q 959 1119 1226 758 
Q 1494 397 1959 397 
Q 2419 397 2687 759 
Q 2956 1122 2956 1747 
Q 2956 2369 2687 2733 
Q 2419 3097 1959 3097 
z
M 1959 3584 
Q 2709 3584 3137 3096 
Q 3566 2609 3566 1747 
Q 3566 888 3137 398 
Q 2709 -91 1959 -91 
Q 1206 -91 779 398 
Q 353 888 353 1747 
Q 353 2609 779 3096 
Q 1206 3584 1959 3584 
z
" transform="scale(0.015625)"/>
      <path id="DejaVuSans-6e" d="M 3513 2113 
L 3513 0 
L 2938 0 
L 2938 2094 
Q 2938 2591 2744 2837 
Q 2550 3084 2163 3084 
Q 1697 3084 1428 2787 
Q 1159 2491 1159 1978 
L 1159 0 
L 581 0 
L 581 3500 
L 1159 3500 
L 1159 2956 
Q 1366 3272 1645 3428 
Q 1925 3584 2291 3584 
Q 2894 3584 3203 3211 
Q 3513 2838 3513 2113 
z
" transform="scale(0.015625)"/>
      <path id="DejaVuSans-6c" d="M 603 4863 
L 1178 4863 
L 1178 0 
L 603 0 
L 603 4863 
z
" transform="scale(0.015625)"/>
      <path id="DejaVuSans-20" transform="scale(0.015625)"/>
      <path id="DejaVuSans-53" d="M 3425 4513 
L 3425 3897 
Q 3066 4069 2747 4153 
Q 2428 4238 2131 4238 
Q 1616 4238 1336 4038 
Q 1056 3838 1056 3469 
Q 1056 3159 1242 3001 
Q 1428 2844 1947 2747 
L 2328 2669 
Q 3034 2534 3370 2195 
Q 3706 1856 3706 1288 
Q 3706 609 3251 259 
Q 2797 -91 1919 -91 
Q 1588 -91 1214 -16 
Q 841 59 441 206 
L 441 856 
Q 825 641 1194 531 
Q 1563 422 1919 422 
Q 2459 422 2753 634 
Q 3047 847 3047 1241 
Q 3047 1584 2836 1778 
Q 2625 1972 2144 2069 
L 1759 2144 
Q 1053 2284 737 2584 
Q 422 2884 422 3419 
Q 422 4038 858 4394 
Q 1294 4750 2059 4750 
Q 2388 4750 2728 4690 
Q 3069 4631 3425 4513 
z
" transform="scale(0.015625)"/>
      <path id="DejaVuSans-68" d="M 3513 2113 
L 3513 0 
L 2938 0 
L 2938 2094 
Q 2938 2591 2744 2837 
Q 2550 3084 2163 3084 
Q 1697 3084 1428 2787 
Q 1159 2491 1159 1978 
L 1159 0 
L 581 0 
L 581 4863 
L 1159 4863 
L 1159 2956 
Q 1366 3272 1645 3428 
Q 1925 3584 2291 3584 
Q 2894 3584 3203 3211 
Q 3513 2838 3513 2113 
z
" transform="scale(0.015625)"/>
      <path id="DejaVuSans-65" d="M 3597 1894 
L 3597 1613 
L 953 1613 
Q 991 1019 1311 708 
Q 1631 397 2203 397 
Q 2534 397 2845 478 
Q 3156 559 3463 722 
L 3463 178 
Q 3153 47 2828 -22 
Q 2503 -91 2169 -91 
Q 1331 -91 842 396 
Q 353 884 353 1716 
Q 353 2575 817 3079 
Q 1281 3584 2069 3584 
Q 2775 3584 3186 3129 
Q 3597 2675 3597 1894 
z
M 3022 2063 
Q 3016 2534 2758 2815 
Q 2500 3097 2075 3097 
Q 1594 3097 1305 2825 
Q 1016 2553 972 2059 
L 3022 2063 
z
" transform="scale(0.015625)"/>
     </defs>
     <use xlink:href="#DejaVuSans-54"/>
     <use xlink:href="#DejaVuSans-72" transform="translate(46.333984 0)"/>
     <use xlink:href="#DejaVuSans-61" transform="translate(87.447266 0)"/>
     <use xlink:href="#DejaVuSans-64" transform="translate(148.726562 0)"/>
     <use xlink:href="#DejaVuSans-69" transform="translate(212.203125 0)"/>
     <use xlink:href="#DejaVuSans-74" transform="translate(239.986328 0)"/>
     <use xlink:href="#DejaVuSans-69" transform="translate(279.195312 0)"/>
     <use xlink:href="#DejaVuSans-6f" transform="translate(306.978516 0)"/>
     <use xlink:href="#DejaVuSans-6e" transform="translate(368.160156 0)"/>
     <use xlink:href="#DejaVuSans-61" transform="translate(431.539062 0)"/>
     <use xlink:href="#DejaVuSans-6c" transform="translate(492.818359 0)"/>
     <use xlink:href="#DejaVuSans-20" transform="translate(520.601562 0)"/>
     <use xlink:href="#DejaVuSans-53" transform="translate(552.388672 0)"/>
     <use xlink:href="#DejaVuSans-68" transform="translate(615.865234 0)"/>
     <use xlink:href="#DejaVuSans-65" transform="translate(679.244141 0)"/>
     <use xlink:href="#DejaVuSans-61" transform="translate(740.767578 0)"/>
     <use xlink:href="#DejaVuSans-72" transform="translate(802.046875 0)"/>
    </g>
   </g>
  </g>
 </g>
 <defs>
  <clipPath id="p8321db68e5">
   <rect x="44.555937" y="27.837812" width="279" height="277.2"/>
  </clipPath>
 </defs>
</svg>
