<?xml version="1.0" encoding="utf-8" standalone="no"?>
<!DOCTYPE svg PUBLIC "-//W3C//DTD SVG 1.1//EN"
  "http://www.w3.org/Graphics/SVG/1.1/DTD/svg11.dtd">
<svg xmlns:xlink="http://www.w3.org/1999/xlink" width="330.755937pt" height="344.529688pt" viewBox="0 0 330.755937 344.529688" xmlns="http://www.w3.org/2000/svg" version="1.1">
 <metadata>
  <rdf:RDF xmlns:dc="http://purl.org/dc/elements/1.1/" xmlns:cc="http://creativecommons.org/ns#" xmlns:rdf="http://www.w3.org/1999/02/22-rdf-syntax-ns#">
   <cc:Work>
    <dc:type rdf:resource="http://purl.org/dc/dcmitype/StillImage"/>
    <dc:date>2025-02-09T20:55:44.091820</dc:date>
    <dc:format>image/svg+xml</dc:format>
    <dc:creator>
     <cc:Agent>
      <dc:title>Matplotlib v3.10.0, https://matplotlib.org/</dc:title>
     </cc:Agent>
    </dc:creator>
   </cc:Work>
  </rdf:RDF>
 </metadata>
 <defs>
  <style type="text/css">*{stroke-linejoin: round; stroke-linecap: butt}</style>
 </defs>
 <g id="figure_1">
  <g id="patch_1">
   <path d="M -0 344.529688 
L 330.755937 344.529688 
L 330.755937 0 
L -0 0 
z
" style="fill: #ffffff"/>
  </g>
  <g id="axes_1">
   <g id="patch_2">
    <path d="M 44.555937 305.037813 
L 323.555938 305.037813 
L 323.555938 27.837812 
L 44.555937 27.837812 
z
" style="fill: #ffffff"/>
   </g>
   <g id="Quiver_1">
    <path d="M 56.497945 293.995805 
L 45.331046 282.828906 
L 44.591236 285.048337 
L 39.412562 275.430801 
L 49.030098 280.609474 
L 46.810667 281.349285 
L 57.977566 292.516184 
L 56.497945 293.995805 
" clip-path="url(#pc5b8e9ab88)" style="fill: #0000ff"/>
    <path d="M 92.863401 294.107363 
L 82.700526 286.848166 
L 82.335654 289.159024 
L 75.646328 280.523713 
L 85.984376 284.050812 
L 83.916767 285.145429 
L 94.079642 292.404626 
L 92.863401 294.107363 
" clip-path="url(#pc5b8e9ab88)" style="fill: #0000ff"/>
    <path d="M 129.29315 294.21765 
L 120.122856 290.287524 
L 120.260235 292.622973 
L 111.880095 285.616626 
L 122.733064 286.85304 
L 120.947132 288.364213 
L 130.117426 292.294339 
L 129.29315 294.21765 
" clip-path="url(#pc5b8e9ab88)" style="fill: #0000ff"/>
    <path d="M 165.791092 294.291729 
L 157.287511 293.076932 
L 158.027321 295.296363 
L 148.113861 290.709538 
L 158.915094 289.081955 
L 157.583435 291.005462 
L 166.087016 292.22026 
L 165.791092 294.291729 
" clip-path="url(#pc5b8e9ab88)" style="fill: #0000ff"/>
    <path d="M 202.320783 294.291729 
L 193.817201 295.506526 
L 195.14886 297.430034 
L 184.347627 295.802451 
L 194.261087 291.215626 
L 193.521277 293.435057 
L 202.024859 292.22026 
L 202.320783 294.291729 
" clip-path="url(#pc5b8e9ab88)" style="fill: #0000ff"/>
    <path d="M 238.818725 294.21765 
L 229.648431 298.147776 
L 231.434362 299.658949 
L 220.581393 300.895363 
L 228.961534 293.889016 
L 228.824155 296.224465 
L 237.994449 292.294339 
L 238.818725 294.21765 
" clip-path="url(#pc5b8e9ab88)" style="fill: #0000ff"/>
    <path d="M 275.248474 294.107363 
L 265.085598 301.36656 
L 267.153207 302.461177 
L 256.81516 305.988275 
L 263.504485 297.352965 
L 263.869357 299.663823 
L 274.032233 292.404626 
L 275.248474 294.107363 
" clip-path="url(#pc5b8e9ab88)" style="fill: #0000ff"/>
    <path d="M 311.61393 293.995805 
L 300.447031 305.162704 
L 302.666462 305.902514 
L 293.048926 311.081188 
L 298.227599 301.463652 
L 298.96741 303.683083 
L 310.134309 292.516184 
L 311.61393 293.995805 
" clip-path="url(#pc5b8e9ab88)" style="fill: #0000ff"/>
    <path d="M 56.386387 257.630349 
L 49.12719 247.467473 
L 48.032573 249.535082 
L 44.505475 239.197035 
L 53.140785 245.88636 
L 50.829927 246.251232 
L 58.089124 256.414108 
L 56.386387 257.630349 
" clip-path="url(#pc5b8e9ab88)" style="fill: #0000ff"/>
    <path d="M 92.731711 257.762039 
L 86.657725 251.688052 
L 85.917914 253.907483 
L 80.739241 244.289947 
L 90.356777 249.46862 
L 88.137346 250.208431 
L 94.211332 256.282418 
L 92.731711 257.762039 
" clip-path="url(#pc5b8e9ab88)" style="fill: #0000ff"/>
    <path d="M 129.166997 257.91938 
L 124.509084 255.124632 
L 124.329653 257.457227 
L 116.973007 249.382859 
L 127.5594 252.074315 
L 125.585666 253.330328 
L 130.243579 256.125076 
L 129.166997 257.91938 
" clip-path="url(#pc5b8e9ab88)" style="fill: #0000ff"/>
    <path d="M 165.733868 258.048161 
L 162.23498 257.348383 
L 162.850539 259.605435 
L 153.206773 254.475772 
L 164.081658 253.449839 
L 162.645353 255.296518 
L 166.144241 255.996296 
L 165.733868 258.048161 
" clip-path="url(#pc5b8e9ab88)" style="fill: #0000ff"/>
    <path d="M 202.378007 258.048161 
L 198.879119 258.747938 
L 200.315424 260.594617 
L 189.44054 259.568684 
L 199.084305 254.439022 
L 198.468746 256.696073 
L 201.967634 255.996296 
L 202.378007 258.048161 
" clip-path="url(#pc5b8e9ab88)" style="fill: #0000ff"/>
    <path d="M 238.944878 257.91938 
L 234.286965 260.714128 
L 236.260699 261.970141 
L 225.674306 264.661597 
L 233.030952 256.587229 
L 233.210382 258.919824 
L 237.868296 256.125076 
L 238.944878 257.91938 
" clip-path="url(#pc5b8e9ab88)" style="fill: #0000ff"/>
    <path d="M 275.380164 257.762039 
L 269.306177 263.836025 
L 271.525608 264.575836 
L 261.908072 269.754509 
L 267.086745 260.136973 
L 267.826556 262.356404 
L 273.900543 256.282418 
L 275.380164 257.762039 
" clip-path="url(#pc5b8e9ab88)" style="fill: #0000ff"/>
    <path d="M 311.725488 257.630349 
L 304.466291 267.793224 
L 306.777149 268.158096 
L 298.141838 274.847422 
L 301.668937 264.509374 
L 302.763554 266.576983 
L 310.022751 256.414108 
L 311.725488 257.630349 
" clip-path="url(#pc5b8e9ab88)" style="fill: #0000ff"/>
    <path d="M 56.2761 221.2006 
L 52.345974 212.030306 
L 50.834801 213.816237 
L 49.598387 202.963268 
L 56.604734 211.343409 
L 54.269285 211.20603 
L 58.199411 220.376324 
L 56.2761 221.2006 
" clip-path="url(#pc5b8e9ab88)" style="fill: #0000ff"/>
    <path d="M 92.57437 221.326753 
L 89.779622 216.66884 
L 88.523609 218.642574 
L 85.832153 208.056181 
L 93.906521 215.412827 
L 91.573926 215.592257 
L 94.368674 220.250171 
L 92.57437 221.326753 
" clip-path="url(#pc5b8e9ab88)" style="fill: #0000ff"/>
    <path d="M 128.965478 221.528272 
L 127.984403 220.547198 
L 127.244593 222.766629 
L 122.06592 213.149093 
L 131.683456 218.327767 
L 129.464024 219.067577 
L 130.445099 220.048651 
L 128.965478 221.528272 
" clip-path="url(#pc5b8e9ab88)" style="fill: #0000ff"/>
    <path d="M 165.684409 221.552399 
L 164.920472 221.297753 
L 165.175118 223.080272 
L 158.299686 218.242006 
L 166.702991 218.496651 
L 165.429763 219.769879 
L 166.1937 220.024525 
L 165.684409 221.552399 
" clip-path="url(#pc5b8e9ab88)" style="fill: #0000ff"/>
    <path d="M 202.427466 221.552399 
L 201.663529 221.807044 
L 202.936757 223.080272 
L 194.533452 223.334918 
L 201.408884 218.496651 
L 201.154238 220.279171 
L 201.918175 220.024525 
L 202.427466 221.552399 
" clip-path="url(#pc5b8e9ab88)" style="fill: #0000ff"/>
    <path d="M 239.146397 221.528272 
L 238.165323 222.509347 
L 240.384754 223.249157 
L 230.767218 228.42783 
L 235.945892 218.810294 
L 236.685702 221.029726 
L 237.666776 220.048651 
L 239.146397 221.528272 
" clip-path="url(#pc5b8e9ab88)" style="fill: #0000ff"/>
    <path d="M 275.537505 221.326753 
L 272.742757 225.984666 
L 275.075352 226.164097 
L 267.000984 233.520743 
L 269.69244 222.93435 
L 270.948453 224.908084 
L 273.743201 220.250171 
L 275.537505 221.326753 
" clip-path="url(#pc5b8e9ab88)" style="fill: #0000ff"/>
    <path d="M 311.835775 221.2006 
L 307.905649 230.370894 
L 310.241098 230.233515 
L 303.234751 238.613655 
L 304.471165 227.760686 
L 305.982338 229.546618 
L 309.912464 220.376324 
L 311.835775 221.2006 
" clip-path="url(#pc5b8e9ab88)" style="fill: #0000ff"/>
    <path d="M 56.202021 184.702658 
L 54.987224 176.199076 
L 53.063716 177.530735 
L 54.691299 166.729502 
L 59.278124 176.642962 
L 57.058693 175.903152 
L 58.27349 184.406734 
L 56.202021 184.702658 
" clip-path="url(#pc5b8e9ab88)" style="fill: #0000ff"/>
    <path d="M 92.445589 184.759882 
L 91.745812 181.260994 
L 89.899133 182.697299 
L 90.925066 171.822415 
L 96.054728 181.46618 
L 93.797677 180.850621 
L 94.497454 184.349509 
L 92.445589 184.759882 
" clip-path="url(#pc5b8e9ab88)" style="fill: #0000ff"/>
    <path d="M 128.941351 184.809341 
L 128.686706 184.045404 
L 127.413478 185.318632 
L 127.158832 176.915327 
L 131.997099 183.790759 
L 130.214579 183.536113 
L 130.469225 184.30005 
L 128.941351 184.809341 
" clip-path="url(#pc5b8e9ab88)" style="fill: #0000ff"/>
    <path d="M 165.684409 184.809341 
L 165.429763 184.554696 
L 165.175118 185.318632 
L 163.392598 182.008239 
L 166.702991 183.790759 
L 165.939054 184.045404 
L 166.1937 184.30005 
L 165.684409 184.809341 
" clip-path="url(#pc5b8e9ab88)" style="fill: #0000ff"/>
    <path d="M 202.427466 184.809341 
L 202.172821 185.063987 
L 202.936757 185.318632 
L 199.626364 187.101152 
L 201.408884 183.790759 
L 201.663529 184.554696 
L 201.918175 184.30005 
L 202.427466 184.809341 
" clip-path="url(#pc5b8e9ab88)" style="fill: #0000ff"/>
    <path d="M 239.170524 184.809341 
L 238.915878 185.573278 
L 240.698397 185.318632 
L 235.860131 192.194064 
L 236.114776 183.790759 
L 237.388004 185.063987 
L 237.64265 184.30005 
L 239.170524 184.809341 
" clip-path="url(#pc5b8e9ab88)" style="fill: #0000ff"/>
    <path d="M 275.666286 184.759882 
L 274.966508 188.25877 
L 277.22356 187.643211 
L 272.093897 197.286977 
L 271.067964 186.412092 
L 272.914643 187.848397 
L 273.614421 184.349509 
L 275.666286 184.759882 
" clip-path="url(#pc5b8e9ab88)" style="fill: #0000ff"/>
    <path d="M 311.909854 184.702658 
L 310.695057 193.206239 
L 312.914488 192.466429 
L 308.327663 202.379889 
L 306.70008 191.578656 
L 308.623587 192.910315 
L 309.838385 184.406734 
L 311.909854 184.702658 
" clip-path="url(#pc5b8e9ab88)" style="fill: #0000ff"/>
    <path d="M 56.202021 148.172967 
L 57.416818 139.669386 
L 55.197387 140.409196 
L 59.784212 130.495736 
L 61.411795 141.296969 
L 59.488288 139.96531 
L 58.27349 148.468891 
L 56.202021 148.172967 
" clip-path="url(#pc5b8e9ab88)" style="fill: #0000ff"/>
    <path d="M 92.445589 148.115743 
L 93.145367 144.616855 
L 90.888315 145.232414 
L 96.017978 135.588648 
L 97.043911 146.463533 
L 95.197232 145.027228 
L 94.497454 148.526116 
L 92.445589 148.115743 
" clip-path="url(#pc5b8e9ab88)" style="fill: #0000ff"/>
    <path d="M 128.941351 148.066284 
L 129.195997 147.302347 
L 127.413478 147.556993 
L 132.251744 140.681561 
L 131.997099 149.084866 
L 130.723871 147.811638 
L 130.469225 148.575575 
L 128.941351 148.066284 
" clip-path="url(#pc5b8e9ab88)" style="fill: #0000ff"/>
    <path d="M 165.684409 148.066284 
L 165.939054 147.811638 
L 165.175118 147.556993 
L 168.485511 145.774473 
L 166.702991 149.084866 
L 166.448346 148.320929 
L 166.1937 148.575575 
L 165.684409 148.066284 
" clip-path="url(#pc5b8e9ab88)" style="fill: #0000ff"/>
    <path d="M 202.427466 148.066284 
L 202.682112 148.320929 
L 202.936757 147.556993 
L 204.719277 150.867386 
L 201.408884 149.084866 
L 202.172821 148.830221 
L 201.918175 148.575575 
L 202.427466 148.066284 
" clip-path="url(#pc5b8e9ab88)" style="fill: #0000ff"/>
    <path d="M 239.170524 148.066284 
L 239.425169 148.830221 
L 240.698397 147.556993 
L 240.953043 155.960298 
L 236.114776 149.084866 
L 237.897296 149.339512 
L 237.64265 148.575575 
L 239.170524 148.066284 
" clip-path="url(#pc5b8e9ab88)" style="fill: #0000ff"/>
    <path d="M 275.666286 148.115743 
L 276.366063 151.614631 
L 278.212742 150.178326 
L 277.186809 161.05321 
L 272.057147 151.409445 
L 274.314198 152.025004 
L 273.614421 148.526116 
L 275.666286 148.115743 
" clip-path="url(#pc5b8e9ab88)" style="fill: #0000ff"/>
    <path d="M 311.909854 148.172967 
L 313.124651 156.676549 
L 315.048159 155.34489 
L 313.420576 166.146123 
L 308.833751 156.232663 
L 311.053182 156.972473 
L 309.838385 148.468891 
L 311.909854 148.172967 
" clip-path="url(#pc5b8e9ab88)" style="fill: #0000ff"/>
    <path d="M 56.2761 111.675025 
L 60.206226 102.504731 
L 57.870777 102.64211 
L 64.877124 94.26197 
L 63.64071 105.114939 
L 62.129537 103.329007 
L 58.199411 112.499301 
L 56.2761 111.675025 
" clip-path="url(#pc5b8e9ab88)" style="fill: #0000ff"/>
    <path d="M 92.57437 111.548872 
L 95.369118 106.890959 
L 93.036523 106.711528 
L 101.110891 99.354882 
L 98.419435 109.941275 
L 97.163422 107.967541 
L 94.368674 112.625454 
L 92.57437 111.548872 
" clip-path="url(#pc5b8e9ab88)" style="fill: #0000ff"/>
    <path d="M 128.965478 111.347353 
L 129.946552 110.366278 
L 127.727121 109.626468 
L 137.344657 104.447795 
L 132.165983 114.065331 
L 131.426173 111.845899 
L 130.445099 112.826974 
L 128.965478 111.347353 
" clip-path="url(#pc5b8e9ab88)" style="fill: #0000ff"/>
    <path d="M 165.684409 111.323226 
L 166.448346 111.068581 
L 165.175118 109.795353 
L 173.578423 109.540707 
L 166.702991 114.378974 
L 166.957637 112.596454 
L 166.1937 112.8511 
L 165.684409 111.323226 
" clip-path="url(#pc5b8e9ab88)" style="fill: #0000ff"/>
    <path d="M 202.427466 111.323226 
L 203.191403 111.577872 
L 202.936757 109.795353 
L 209.812189 114.633619 
L 201.408884 114.378974 
L 202.682112 113.105746 
L 201.918175 112.8511 
L 202.427466 111.323226 
" clip-path="url(#pc5b8e9ab88)" style="fill: #0000ff"/>
    <path d="M 239.146397 111.347353 
L 240.127472 112.328427 
L 240.867282 110.108996 
L 246.045955 119.726532 
L 236.428419 114.547858 
L 238.647851 113.808048 
L 237.666776 112.826974 
L 239.146397 111.347353 
" clip-path="url(#pc5b8e9ab88)" style="fill: #0000ff"/>
    <path d="M 275.537505 111.548872 
L 278.332253 116.206785 
L 279.588266 114.233051 
L 282.279722 124.819444 
L 274.205354 117.462798 
L 276.537949 117.283368 
L 273.743201 112.625454 
L 275.537505 111.548872 
" clip-path="url(#pc5b8e9ab88)" style="fill: #0000ff"/>
    <path d="M 311.835775 111.675025 
L 315.765901 120.845319 
L 317.277074 119.059388 
L 318.513488 129.912357 
L 311.507141 121.532216 
L 313.84259 121.669595 
L 309.912464 112.499301 
L 311.835775 111.675025 
" clip-path="url(#pc5b8e9ab88)" style="fill: #0000ff"/>
    <path d="M 56.386387 75.245276 
L 63.645584 65.082401 
L 61.334726 64.717529 
L 69.970037 58.028203 
L 66.442938 68.366251 
L 65.348321 66.298642 
L 58.089124 76.461517 
L 56.386387 75.245276 
" clip-path="url(#pc5b8e9ab88)" style="fill: #0000ff"/>
    <path d="M 92.731711 75.113586 
L 98.805698 69.0396 
L 96.586267 68.299789 
L 106.203803 63.121116 
L 101.02513 72.738652 
L 100.285319 70.519221 
L 94.211332 76.593207 
L 92.731711 75.113586 
" clip-path="url(#pc5b8e9ab88)" style="fill: #0000ff"/>
    <path d="M 129.166997 74.956245 
L 133.82491 72.161497 
L 131.851176 70.905484 
L 142.437569 68.214028 
L 135.080923 76.288396 
L 134.901493 73.955801 
L 130.243579 76.750549 
L 129.166997 74.956245 
" clip-path="url(#pc5b8e9ab88)" style="fill: #0000ff"/>
    <path d="M 165.733868 74.827464 
L 169.232756 74.127687 
L 167.796451 72.281008 
L 178.671335 73.306941 
L 169.02757 78.436603 
L 169.643129 76.179552 
L 166.144241 76.879329 
L 165.733868 74.827464 
" clip-path="url(#pc5b8e9ab88)" style="fill: #0000ff"/>
    <path d="M 202.378007 74.827464 
L 205.876895 75.527242 
L 205.261336 73.27019 
L 214.905102 78.399853 
L 204.030217 79.425786 
L 205.466522 77.579107 
L 201.967634 76.879329 
L 202.378007 74.827464 
" clip-path="url(#pc5b8e9ab88)" style="fill: #0000ff"/>
    <path d="M 238.944878 74.956245 
L 243.602791 77.750993 
L 243.782222 75.418398 
L 251.138868 83.492766 
L 240.552475 80.80131 
L 242.526209 79.545297 
L 237.868296 76.750549 
L 238.944878 74.956245 
" clip-path="url(#pc5b8e9ab88)" style="fill: #0000ff"/>
    <path d="M 275.380164 75.113586 
L 281.45415 81.187573 
L 282.193961 78.968142 
L 287.372634 88.585678 
L 277.755098 83.407005 
L 279.974529 82.667194 
L 273.900543 76.593207 
L 275.380164 75.113586 
" clip-path="url(#pc5b8e9ab88)" style="fill: #0000ff"/>
    <path d="M 311.725488 75.245276 
L 318.984685 85.408152 
L 320.079302 83.340543 
L 323.6064 93.67859 
L 314.97109 86.989265 
L 317.281948 86.624393 
L 310.022751 76.461517 
L 311.725488 75.245276 
" clip-path="url(#pc5b8e9ab88)" style="fill: #0000ff"/>
    <path d="M 56.497945 38.87982 
L 67.664844 27.712921 
L 65.445413 26.973111 
L 75.062949 21.794437 
L 69.884276 31.411973 
L 69.144465 29.192542 
L 57.977566 40.359441 
L 56.497945 38.87982 
" clip-path="url(#pc5b8e9ab88)" style="fill: #0000ff"/>
    <path d="M 92.863401 38.768262 
L 103.026277 31.509065 
L 100.958668 30.414448 
L 111.296715 26.88735 
L 104.60739 35.52266 
L 104.242518 33.211802 
L 94.079642 40.470999 
L 92.863401 38.768262 
" clip-path="url(#pc5b8e9ab88)" style="fill: #0000ff"/>
    <path d="M 129.29315 38.657975 
L 138.463444 34.727849 
L 136.677513 33.216676 
L 147.530482 31.980262 
L 139.150341 38.986609 
L 139.28772 36.65116 
L 130.117426 40.581286 
L 129.29315 38.657975 
" clip-path="url(#pc5b8e9ab88)" style="fill: #0000ff"/>
    <path d="M 165.791092 38.583896 
L 174.294674 37.369099 
L 172.963015 35.445591 
L 183.764248 37.073174 
L 173.850788 41.659999 
L 174.590598 39.440568 
L 166.087016 40.655365 
L 165.791092 38.583896 
" clip-path="url(#pc5b8e9ab88)" style="fill: #0000ff"/>
    <path d="M 202.320783 38.583896 
L 210.824364 39.798693 
L 210.084554 37.579262 
L 219.998014 42.166087 
L 209.196781 43.79367 
L 210.52844 41.870163 
L 202.024859 40.655365 
L 202.320783 38.583896 
" clip-path="url(#pc5b8e9ab88)" style="fill: #0000ff"/>
    <path d="M 238.818725 38.657975 
L 247.989019 42.588101 
L 247.85164 40.252652 
L 256.23178 47.258999 
L 245.378811 46.022585 
L 247.164743 44.511412 
L 237.994449 40.581286 
L 238.818725 38.657975 
" clip-path="url(#pc5b8e9ab88)" style="fill: #0000ff"/>
    <path d="M 275.248474 38.768262 
L 285.411349 46.027459 
L 285.776221 43.716601 
L 292.465547 52.351912 
L 282.127499 48.824813 
L 284.195108 47.730196 
L 274.032233 40.470999 
L 275.248474 38.768262 
" clip-path="url(#pc5b8e9ab88)" style="fill: #0000ff"/>
    <path d="M 311.61393 38.87982 
L 322.780829 50.046719 
L 323.520639 47.827288 
L 328.699313 57.444824 
L 319.081777 52.266151 
L 321.301208 51.52634 
L 310.134309 40.359441 
L 311.61393 38.87982 
" clip-path="url(#pc5b8e9ab88)" style="fill: #0000ff"/>
   </g>
   <g id="matplotlib.axis_1">
    <g id="xtick_1">
     <g id="line2d_1">
      <path d="M 57.237756 305.037813 
L 57.237756 27.837812 
" clip-path="url(#pc5b8e9ab88)" style="fill: none; stroke-dasharray: 2.96,1.28; stroke-dashoffset: 0; stroke: #b0b0b0; stroke-opacity: 0.5; stroke-width: 0.8"/>
     </g>
     <g id="line2d_2">
      <defs>
       <path id="maaa5da66a6" d="M 0 0 
L 0 3.5 
" style="stroke: #000000; stroke-width: 0.8"/>
      </defs>
      <g>
       <use xlink:href="#maaa5da66a6" x="57.237756" y="305.037813" style="stroke: #000000; stroke-width: 0.8"/>
      </g>
     </g>
     <g id="text_1">
      <!-- −1 -->
      <g transform="translate(49.866662 319.63625) scale(0.1 -0.1)">
       <defs>
        <path id="DejaVuSans-2212" d="M 678 2272 
L 4684 2272 
L 4684 1741 
L 678 1741 
L 678 2272 
z
" transform="scale(0.015625)"/>
        <path id="DejaVuSans-31" d="M 794 531 
L 1825 531 
L 1825 4091 
L 703 3866 
L 703 4441 
L 1819 4666 
L 2450 4666 
L 2450 531 
L 3481 531 
L 3481 0 
L 794 0 
L 794 531 
z
" transform="scale(0.015625)"/>
       </defs>
       <use xlink:href="#DejaVuSans-2212"/>
       <use xlink:href="#DejaVuSans-31" transform="translate(83.789062 0)"/>
      </g>
     </g>
    </g>
    <g id="xtick_2">
     <g id="line2d_3">
      <path d="M 184.055937 305.037813 
L 184.055937 27.837812 
" clip-path="url(#pc5b8e9ab88)" style="fill: none; stroke-dasharray: 2.96,1.28; stroke-dashoffset: 0; stroke: #b0b0b0; stroke-opacity: 0.5; stroke-width: 0.8"/>
     </g>
     <g id="line2d_4">
      <g>
       <use xlink:href="#maaa5da66a6" x="184.055937" y="305.037813" style="stroke: #000000; stroke-width: 0.8"/>
      </g>
     </g>
     <g id="text_2">
      <!-- 0 -->
      <g transform="translate(180.874687 319.63625) scale(0.1 -0.1)">
       <defs>
        <path id="DejaVuSans-30" d="M 2034 4250 
Q 1547 4250 1301 3770 
Q 1056 3291 1056 2328 
Q 1056 1369 1301 889 
Q 1547 409 2034 409 
Q 2525 409 2770 889 
Q 3016 1369 3016 2328 
Q 3016 3291 2770 3770 
Q 2525 4250 2034 4250 
z
M 2034 4750 
Q 2819 4750 3233 4129 
Q 3647 3509 3647 2328 
Q 3647 1150 3233 529 
Q 2819 -91 2034 -91 
Q 1250 -91 836 529 
Q 422 1150 422 2328 
Q 422 3509 836 4129 
Q 1250 4750 2034 4750 
z
" transform="scale(0.015625)"/>
       </defs>
       <use xlink:href="#DejaVuSans-30"/>
      </g>
     </g>
    </g>
    <g id="xtick_3">
     <g id="line2d_5">
      <path d="M 310.874119 305.037813 
L 310.874119 27.837812 
" clip-path="url(#pc5b8e9ab88)" style="fill: none; stroke-dasharray: 2.96,1.28; stroke-dashoffset: 0; stroke: #b0b0b0; stroke-opacity: 0.5; stroke-width: 0.8"/>
     </g>
     <g id="line2d_6">
      <g>
       <use xlink:href="#maaa5da66a6" x="310.874119" y="305.037813" style="stroke: #000000; stroke-width: 0.8"/>
      </g>
     </g>
     <g id="text_3">
      <!-- 1 -->
      <g transform="translate(307.692869 319.63625) scale(0.1 -0.1)">
       <use xlink:href="#DejaVuSans-31"/>
      </g>
     </g>
    </g>
    <g id="text_4">
     <!-- x -->
     <g transform="translate(180.504687 334.834063) scale(0.12 -0.12)">
      <defs>
       <path id="DejaVuSans-78" d="M 3513 3500 
L 2247 1797 
L 3578 0 
L 2900 0 
L 1881 1375 
L 863 0 
L 184 0 
L 1544 1831 
L 300 3500 
L 978 3500 
L 1906 2253 
L 2834 3500 
L 3513 3500 
z
" transform="scale(0.015625)"/>
      </defs>
      <use xlink:href="#DejaVuSans-78"/>
     </g>
    </g>
   </g>
   <g id="matplotlib.axis_2">
    <g id="ytick_1">
     <g id="line2d_7">
      <path d="M 44.555937 293.255994 
L 323.555938 293.255994 
" clip-path="url(#pc5b8e9ab88)" style="fill: none; stroke-dasharray: 2.96,1.28; stroke-dashoffset: 0; stroke: #b0b0b0; stroke-opacity: 0.5; stroke-width: 0.8"/>
     </g>
     <g id="line2d_8">
      <defs>
       <path id="mbece297f02" d="M 0 0 
L -3.5 0 
" style="stroke: #000000; stroke-width: 0.8"/>
      </defs>
      <g>
       <use xlink:href="#mbece297f02" x="44.555937" y="293.255994" style="stroke: #000000; stroke-width: 0.8"/>
      </g>
     </g>
     <g id="text_5">
      <!-- −1 -->
      <g transform="translate(22.81375 297.055213) scale(0.1 -0.1)">
       <use xlink:href="#DejaVuSans-2212"/>
       <use xlink:href="#DejaVuSans-31" transform="translate(83.789062 0)"/>
      </g>
     </g>
    </g>
    <g id="ytick_2">
     <g id="line2d_9">
      <path d="M 44.555937 166.437813 
L 323.555938 166.437813 
" clip-path="url(#pc5b8e9ab88)" style="fill: none; stroke-dasharray: 2.96,1.28; stroke-dashoffset: 0; stroke: #b0b0b0; stroke-opacity: 0.5; stroke-width: 0.8"/>
     </g>
     <g id="line2d_10">
      <g>
       <use xlink:href="#mbece297f02" x="44.555937" y="166.437813" style="stroke: #000000; stroke-width: 0.8"/>
      </g>
     </g>
     <g id="text_6">
      <!-- 0 -->
      <g transform="translate(31.193437 170.237031) scale(0.1 -0.1)">
       <use xlink:href="#DejaVuSans-30"/>
      </g>
     </g>
    </g>
    <g id="ytick_3">
     <g id="line2d_11">
      <path d="M 44.555937 39.619631 
L 323.555938 39.619631 
" clip-path="url(#pc5b8e9ab88)" style="fill: none; stroke-dasharray: 2.96,1.28; stroke-dashoffset: 0; stroke: #b0b0b0; stroke-opacity: 0.5; stroke-width: 0.8"/>
     </g>
     <g id="line2d_12">
      <g>
       <use xlink:href="#mbece297f02" x="44.555937" y="39.619631" style="stroke: #000000; stroke-width: 0.8"/>
      </g>
     </g>
     <g id="text_7">
      <!-- 1 -->
      <g transform="translate(31.193437 43.418849) scale(0.1 -0.1)">
       <use xlink:href="#DejaVuSans-31"/>
      </g>
     </g>
    </g>
    <g id="text_8">
     <!-- y -->
     <g transform="translate(16.318125 169.989063) rotate(-90) scale(0.12 -0.12)">
      <defs>
       <path id="DejaVuSans-79" d="M 2059 -325 
Q 1816 -950 1584 -1140 
Q 1353 -1331 966 -1331 
L 506 -1331 
L 506 -850 
L 844 -850 
Q 1081 -850 1212 -737 
Q 1344 -625 1503 -206 
L 1606 56 
L 191 3500 
L 800 3500 
L 1894 763 
L 2988 3500 
L 3597 3500 
L 2059 -325 
z
" transform="scale(0.015625)"/>
      </defs>
      <use xlink:href="#DejaVuSans-79"/>
     </g>
    </g>
   </g>
   <g id="patch_3">
    <path d="M 44.555937 305.037813 
L 44.555937 27.837812 
" style="fill: none; stroke: #000000; stroke-width: 0.8; stroke-linejoin: miter; stroke-linecap: square"/>
   </g>
   <g id="patch_4">
    <path d="M 323.555938 305.037813 
L 323.555938 27.837812 
" style="fill: none; stroke: #000000; stroke-width: 0.8; stroke-linejoin: miter; stroke-linecap: square"/>
   </g>
   <g id="patch_5">
    <path d="M 44.555937 305.037813 
L 323.555938 305.037813 
" style="fill: none; stroke: #000000; stroke-width: 0.8; stroke-linejoin: miter; stroke-linecap: square"/>
   </g>
   <g id="patch_6">
    <path d="M 44.555937 27.837812 
L 323.555938 27.837812 
" style="fill: none; stroke: #000000; stroke-width: 0.8; stroke-linejoin: miter; stroke-linecap: square"/>
   </g>
   <g id="text_9">
    <!-- Rotation -->
    <g transform="translate(154.781719 17.837812) scale(0.14 -0.14)">
     <defs>
      <path id="DejaVuSans-52" d="M 2841 2188 
Q 3044 2119 3236 1894 
Q 3428 1669 3622 1275 
L 4263 0 
L 3584 0 
L 2988 1197 
Q 2756 1666 2539 1819 
Q 2322 1972 1947 1972 
L 1259 1972 
L 1259 0 
L 628 0 
L 628 4666 
L 2053 4666 
Q 2853 4666 3247 4331 
Q 3641 3997 3641 3322 
Q 3641 2881 3436 2590 
Q 3231 2300 2841 2188 
z
M 1259 4147 
L 1259 2491 
L 2053 2491 
Q 2509 2491 2742 2702 
Q 2975 2913 2975 3322 
Q 2975 3731 2742 3939 
Q 2509 4147 2053 4147 
L 1259 4147 
z
" transform="scale(0.015625)"/>
      <path id="DejaVuSans-6f" d="M 1959 3097 
Q 1497 3097 1228 2736 
Q 959 2375 959 1747 
Q 959 1119 1226 758 
Q 1494 397 1959 397 
Q 2419 397 2687 759 
Q 2956 1122 2956 1747 
Q 2956 2369 2687 2733 
Q 2419 3097 1959 3097 
z
M 1959 3584 
Q 2709 3584 3137 3096 
Q 3566 2609 3566 1747 
Q 3566 888 3137 398 
Q 2709 -91 1959 -91 
Q 1206 -91 779 398 
Q 353 888 353 1747 
Q 353 2609 779 3096 
Q 1206 3584 1959 3584 
z
" transform="scale(0.015625)"/>
      <path id="DejaVuSans-74" d="M 1172 4494 
L 1172 3500 
L 2356 3500 
L 2356 3053 
L 1172 3053 
L 1172 1153 
Q 1172 725 1289 603 
Q 1406 481 1766 481 
L 2356 481 
L 2356 0 
L 1766 0 
Q 1100 0 847 248 
Q 594 497 594 1153 
L 594 3053 
L 172 3053 
L 172 3500 
L 594 3500 
L 594 4494 
L 1172 4494 
z
" transform="scale(0.015625)"/>
      <path id="DejaVuSans-61" d="M 2194 1759 
Q 1497 1759 1228 1600 
Q 959 1441 959 1056 
Q 959 750 1161 570 
Q 1363 391 1709 391 
Q 2188 391 2477 730 
Q 2766 1069 2766 1631 
L 2766 1759 
L 2194 1759 
z
M 3341 1997 
L 3341 0 
L 2766 0 
L 2766 531 
Q 2569 213 2275 61 
Q 1981 -91 1556 -91 
Q 1019 -91 701 211 
Q 384 513 384 1019 
Q 384 1609 779 1909 
Q 1175 2209 1959 2209 
L 2766 2209 
L 2766 2266 
Q 2766 2663 2505 2880 
Q 2244 3097 1772 3097 
Q 1472 3097 1187 3025 
Q 903 2953 641 2809 
L 641 3341 
Q 956 3463 1253 3523 
Q 1550 3584 1831 3584 
Q 2591 3584 2966 3190 
Q 3341 2797 3341 1997 
z
" transform="scale(0.015625)"/>
      <path id="DejaVuSans-69" d="M 603 3500 
L 1178 3500 
L 1178 0 
L 603 0 
L 603 3500 
z
M 603 4863 
L 1178 4863 
L 1178 4134 
L 603 4134 
L 603 4863 
z
" transform="scale(0.015625)"/>
      <path id="DejaVuSans-6e" d="M 3513 2113 
L 3513 0 
L 2938 0 
L 2938 2094 
Q 2938 2591 2744 2837 
Q 2550 3084 2163 3084 
Q 1697 3084 1428 2787 
Q 1159 2491 1159 1978 
L 1159 0 
L 581 0 
L 581 3500 
L 1159 3500 
L 1159 2956 
Q 1366 3272 1645 3428 
Q 1925 3584 2291 3584 
Q 2894 3584 3203 3211 
Q 3513 2838 3513 2113 
z
" transform="scale(0.015625)"/>
     </defs>
     <use xlink:href="#DejaVuSans-52"/>
     <use xlink:href="#DejaVuSans-6f" transform="translate(64.982422 0)"/>
     <use xlink:href="#DejaVuSans-74" transform="translate(126.164062 0)"/>
     <use xlink:href="#DejaVuSans-61" transform="translate(165.373047 0)"/>
     <use xlink:href="#DejaVuSans-74" transform="translate(226.652344 0)"/>
     <use xlink:href="#DejaVuSans-69" transform="translate(265.861328 0)"/>
     <use xlink:href="#DejaVuSans-6f" transform="translate(293.644531 0)"/>
     <use xlink:href="#DejaVuSans-6e" transform="translate(354.826172 0)"/>
    </g>
   </g>
  </g>
 </g>
 <defs>
  <clipPath id="pc5b8e9ab88">
   <rect x="44.555937" y="27.837812" width="279" height="277.2"/>
  </clipPath>
 </defs>
</svg>
